<svg xmlns:gliffy="http://www.gliffy.com" xmlns:x="http://ns.adobe.com/Extensibility/1.0/" xmlns:i="http://ns.adobe.com/AdobeIllustrator/10.0/" xmlns:graph="http://ns.adobe.com/Graphs/1.0/" xmlns:a="http://ns.adobe.com/AdobeSVGViewerExtensions/3.0/" xmlns="http://www.w3.org/2000/svg" xmlns:xlink="http://www.w3.org/1999/xlink" width="652" height="460"><rect stroke="#000000" stroke-width="0" fill="#ffffff" x="0" y="0" width="651" height="459"/><defs><linearGradient gradientUnits="userSpaceOnUse" id="SVGIDlaptop_1_" x1="1.0244" x2="87.7295" xlink:actuate="onLoad" xlink:show="other" xlink:type="simple" xmlns:xlink="http://www.w3.org/1999/xlink" y1="63.3359" y2="63.3359">		<stop offset="0" style="stop-color:#D2D2D2"/>		<stop offset="1" style="stop-color:#4B4B4B"/>		<a:midPointStop offset="0" style="stop-color:#D2D2D2"/>		<a:midPointStop offset="0.5" style="stop-color:#D2D2D2"/>		<a:midPointStop offset="1" style="stop-color:#4B4B4B"/>	</linearGradient><linearGradient gradientTransform="matrix(-1 0 0 1 101.9824 0)" gradientUnits="userSpaceOnUse" id="SVGIDlaptop_2_" x1="48.2324" x2="66.1064" xlink:actuate="onLoad" xlink:show="other" xlink:type="simple" xmlns:xlink="http://www.w3.org/1999/xlink" y1="50.8892" y2="75.7486">		<stop offset="0" style="stop-color:#616161"/>		<stop offset="0.4986" style="stop-color:#A1A1A1"/>		<stop offset="1" style="stop-color:#DEDEDE"/>		<a:midPointStop offset="0" style="stop-color:#616161"/>		<a:midPointStop offset="0.4847" style="stop-color:#616161"/>		<a:midPointStop offset="1" style="stop-color:#DEDEDE"/>	</linearGradient><linearGradient gradientTransform="matrix(-1 0 0 1 101.9824 0)" gradientUnits="userSpaceOnUse" id="SVGIDlaptop_3_" x1="57.5791" x2="78.3447" xlink:actuate="onLoad" xlink:show="other" xlink:type="simple" xmlns:xlink="http://www.w3.org/1999/xlink" y1="68.2632" y2="68.2632">		<stop offset="0" style="stop-color:#FFFFFF"/>		<stop offset="0.4818" style="stop-color:#FDFDFD"/>		<stop offset="0.6553" style="stop-color:#F6F6F6"/>		<stop offset="0.779" style="stop-color:#EBEBEB"/>		<stop offset="0.879" style="stop-color:#DADADA"/>		<stop offset="0.9637" style="stop-color:#C4C4C4"/>		<stop offset="1" style="stop-color:#B8B8B8"/>		<a:midPointStop offset="0" style="stop-color:#FFFFFF"/>		<a:midPointStop offset="0.87" style="stop-color:#FFFFFF"/>		<a:midPointStop offset="1" style="stop-color:#B8B8B8"/>	</linearGradient><linearGradient gradientTransform="matrix(-1 0 0 1 101.9824 0)" gradientUnits="userSpaceOnUse" id="SVGIDlaptop_4_" x1="57.835" x2="78.124" xlink:actuate="onLoad" xlink:show="other" xlink:type="simple" xmlns:xlink="http://www.w3.org/1999/xlink" y1="68.4165" y2="68.4165">		<stop offset="0.0061" style="stop-color:#B8B8B8"/>		<stop offset="0.5179" style="stop-color:#909090"/>		<stop offset="1" style="stop-color:#6E6E6E"/>		<a:midPointStop offset="0.0061" style="stop-color:#B8B8B8"/>		<a:midPointStop offset="0.4724" style="stop-color:#B8B8B8"/>		<a:midPointStop offset="1" style="stop-color:#6E6E6E"/>	</linearGradient><linearGradient gradientTransform="matrix(-1 0 0 1 101.9824 0)" gradientUnits="userSpaceOnUse" id="SVGIDlaptop_5_" x1="41.3965" x2="42.6358" xlink:actuate="onLoad" xlink:show="other" xlink:type="simple" xmlns:xlink="http://www.w3.org/1999/xlink" y1="51.3901" y2="53.4315">		<stop offset="0" style="stop-color:#5B5B5B"/>		<stop offset="0.1038" style="stop-color:#6B6B6B"/>		<stop offset="0.351" style="stop-color:#8C8C8C"/>		<stop offset="0.5885" style="stop-color:#A3A3A3"/>		<stop offset="0.8102" style="stop-color:#B1B1B1"/>		<stop offset="1" style="stop-color:#B6B6B6"/>		<a:midPointStop offset="0" style="stop-color:#5B5B5B"/>		<a:midPointStop offset="0.3252" style="stop-color:#5B5B5B"/>		<a:midPointStop offset="1" style="stop-color:#B6B6B6"/>	</linearGradient><linearGradient gradientTransform="matrix(-1 0 0 1 101.9824 0)" gradientUnits="userSpaceOnUse" id="SVGIDlaptop_6_" x1="24.5166" x2="54.2864" xlink:actuate="onLoad" xlink:show="other" xlink:type="simple" xmlns:xlink="http://www.w3.org/1999/xlink" y1="16.2402" y2="70.0756">		<stop offset="0" style="stop-color:#CACACA"/>		<stop offset="1" style="stop-color:#505050"/>		<a:midPointStop offset="0" style="stop-color:#CACACA"/>		<a:midPointStop offset="0.5" style="stop-color:#CACACA"/>		<a:midPointStop offset="1" style="stop-color:#505050"/>	</linearGradient><linearGradient gradientUnits="userSpaceOnUse" id="SVGIDlaptop_7_" x1="39.2217" x2="94.8818" xlink:actuate="onLoad" xlink:show="other" xlink:type="simple" xmlns:xlink="http://www.w3.org/1999/xlink" y1="34.0181" y2="34.0181">		<stop offset="0" style="stop-color:#BABFC3"/>		<stop offset="1" style="stop-color:#5A7799"/>		<a:midPointStop offset="0" style="stop-color:#BABFC3"/>		<a:midPointStop offset="0.5" style="stop-color:#BABFC3"/>		<a:midPointStop offset="1" style="stop-color:#5A7799"/>	</linearGradient><linearGradient gradientUnits="userSpaceOnUse" id="SVGIDlaptop_8_" x1="43.9243" x2="54.3043" xlink:actuate="onLoad" xlink:show="other" xlink:type="simple" xmlns:xlink="http://www.w3.org/1999/xlink" y1="68.6743" y2="52.1961">			<stop offset="0" style="stop-color:#FFFFFF"/>			<stop offset="1" style="stop-color:#939393"/>			<a:midPointStop offset="0" style="stop-color:#FFFFFF"/>			<a:midPointStop offset="0.5" style="stop-color:#FFFFFF"/>			<a:midPointStop offset="1" style="stop-color:#939393"/>		</linearGradient><linearGradient gradientUnits="userSpaceOnUse" id="SVGIDlaptop_9_" x1="22.8643" x2="77.5586" xlink:actuate="onLoad" xlink:show="other" xlink:type="simple" xmlns:xlink="http://www.w3.org/1999/xlink" y1="59.3579" y2="59.3579">			<stop offset="0" style="stop-color:#939393"/>			<stop offset="1" style="stop-color:#191919"/>			<a:midPointStop offset="0" style="stop-color:#939393"/>			<a:midPointStop offset="0.5" style="stop-color:#939393"/>			<a:midPointStop offset="1" style="stop-color:#191919"/>		</linearGradient><symbol id="com.gliffy.newnetwork.home.Laptop" viewBox="0 0 100 92" preserveAspectRatio="none"><g id="Layer_0">	<rect fill="none" height="91.918" width="100"/>	<path d="M86.809,67.297c0.769,0.54,3.179-0.356,4.23-4.48l8.359-27.934c1.325-4.223,0.638-5.471-3.871-8.283   L52.72,1.551c-2.068-1.23-5.454-2.366-6.112-0.757l-9.861,35.293c-0.24,0.86,0.44,2.431,1.207,2.881L86.809,67.297z"/>	<path d="M37.798,39.014c0,0,49.447,28.65,49.681,28.794c0.466,0.287,0.75,0.88,0.766,1.393   c0.021,0.758,0.03,1.846,0.03,2.604c0,0.998-0.872,1.451-1.566,1.85L55.961,91.359C55.242,91.773,54.281,92,53.251,92   c-1.035,0-2.005-0.229-2.729-0.65L1.201,62.756c-0.693-0.4-0.907-0.785-0.947-1.5c-0.102-1.823-0.701-3.734,0.398-4.64   L28.55,40.624c0.718-0.41,2.26-1.157,3.566-1.988C33.318,37.87,36.155,37.86,37.798,39.014z"/></g><g id="Layer_1">	<rect fill="none" height="91.918" width="100"/>		<path d="M35.078,38.667c1.028,0,1.989,0.224,2.706,0.633l48.963,28.202c0.683,0.391,0.982,0.738,0.982,1.276   c0,0.538-0.439,0.896-1.123,1.286l-30.33,17.312c-0.709,0.405-1.656,0.627-2.672,0.627c-1.024,0-1.979-0.226-2.693-0.635   L2.08,59.277c-0.682-0.392-1.058-0.904-1.055-1.442s0.381-1.046,1.066-1.433l30.314-17.115   C33.114,38.887,34.064,38.667,35.078,38.667L35.078,38.667z" fill="url(#SVGIDlaptop_1_)"/>				<path d="M53.794,86.15c0.813,0,1.561-0.172,2.103-0.484l29.032-16.715c0.41-0.236,0.554-0.466,0.554-0.593   c0-0.125-0.144-0.356-0.554-0.592l-46.734-26.92c-0.548-0.316-1.307-0.49-2.133-0.49c-0.816,0-1.567,0.17-2.109,0.479L4.935,57.359   c-0.383,0.219-0.555,0.452-0.556,0.587c0,0.135,0.17,0.37,0.552,0.591l46.742,27.122C52.22,85.977,52.971,86.15,53.794,86.15   L53.794,86.15z" fill="url(#SVGIDlaptop_2_)"/>	<path d="M31.854,78.529c-0.001,0.195,0.03,1.052,0.727,1.432l16.578,9.813c0.495,0.263,0.662-0.597,0.629-0.812   c-0.036-0.246,0.039-0.676-0.6-1.057l-16.927-9.931C31.998,77.827,31.856,78.335,31.854,78.529z" fill="#D8D8D8"/>				<path d="M24.186,66.521c-0.661,0.384-0.734,0.965-0.16,1.298l10.759,6.249   c0.573,0.333,1.575,0.292,2.235-0.092l6.836-3.971c0.663-0.384,0.734-0.965,0.16-1.298l-10.758-6.249   c-0.574-0.334-1.574-0.292-2.236,0.093L24.186,66.521z" fill="url(#SVGIDlaptop_3_)"/>				<path d="M24.394,66.715c-0.647,0.375-0.717,0.943-0.158,1.269l10.513,6.106   c0.56,0.324,1.538,0.285,2.184-0.091l6.68-3.88c0.646-0.375,0.717-0.943,0.156-1.269l-10.512-6.105   c-0.56-0.326-1.538-0.285-2.186,0.091L24.394,66.715z" fill="url(#SVGIDlaptop_4_)"/>				<path d="M45.138,42.445l-1.859,1.174l-0.008,0.761l31.497,18.526l0.029-0.493c0,0,0.052-0.371,0.43-0.568   c0.438-0.229,1.105-0.551,1.257-0.637c0.345-0.191,0.72-0.544-0.057-1.01c-0.282-0.168-30.333-17.793-30.333-17.793L45.138,42.445z   " fill="url(#SVGIDlaptop_5_)"/>	<path d="M69.374,82.573c0,0.179,0.128,0.252,0.28,0.163l2.862-1.662c0.152-0.089,0.278-0.308,0.278-0.487v-0.792   c0-0.178-0.126-0.251-0.278-0.161l-2.862,1.661c-0.152,0.088-0.28,0.308-0.28,0.486V82.573z" fill="#C9C9C9"/>	<path d="M77.91,77.421c0,0.178,0.126,0.252,0.281,0.163l2.858-1.662c0.155-0.09,0.28-0.309,0.28-0.487v-0.793   c0-0.178-0.125-0.251-0.28-0.161l-2.858,1.661c-0.155,0.089-0.281,0.308-0.281,0.487V77.421z" fill="#C9C9C9"/>	<path d="M73.709,80.019c0,0.178,0.126,0.252,0.28,0.162l2.859-1.662c0.153-0.09,0.279-0.309,0.279-0.488V77.24   c0-0.179-0.126-0.252-0.279-0.162l-2.859,1.662c-0.154,0.088-0.28,0.309-0.28,0.485V80.019z" fill="#C9C9C9"/>	<path d="M18.688,71.309c0,0.335,0.26,0.766,0.58,0.959c0.32,0.194,0.578,0.079,0.578-0.257   c0-0.335-0.258-0.765-0.578-0.959C18.948,70.859,18.688,70.973,18.688,71.309z" fill="#FFFFFF"/>	<path d="M21.309,72.741c0,0.226,0.181,0.513,0.405,0.643l6.801,3.951c0.224,0.129,0.405,0.052,0.405-0.173l0,0   c0-0.225-0.182-0.513-0.405-0.642l-6.801-3.951C21.49,72.439,21.309,72.517,21.309,72.741L21.309,72.741z" fill="#D6D6D6"/>				<path d="M86.685,66.926c0.761,0.447,1.586,0.115,1.831-0.737l9.917-34.454   c0.245-0.853-0.178-1.914-0.941-2.36L48.708,0.878c-0.764-0.445-1.585-0.112-1.824,0.743l-9.688,34.471   c-0.241,0.855,0.187,1.918,0.949,2.365L86.685,66.926z" fill="url(#SVGIDlaptop_6_)"/>		<path d="M84.05,63.927c0.769,0.45,1.599,0.116,1.845-0.742l8.918-30.983c0.244-0.858-0.18-1.927-0.948-2.375   L49.837,4.108C49.068,3.66,48.242,3.996,48,4.854l-8.711,30.998c-0.241,0.861,0.189,1.933,0.955,2.382L84.05,63.927z" fill="url(#SVGIDlaptop_7_)"/>	<g>				<path d="M77.011,65.879c0.307-0.18,0.307-0.474,0.002-0.653L39.85,43.521    c-0.306-0.18-0.811-0.184-1.121-0.009l-15.947,9.007c-0.31,0.175-0.312,0.465-0.007,0.646l37.28,21.938    c0.307,0.181,0.81,0.182,1.117,0.004L77.011,65.879z" fill="url(#SVGIDlaptop_8_)"/>				<path d="M77.329,65.274L40.167,43.567c-0.308-0.179-0.812-0.182-1.121-0.008l-15.948,9.007    c-0.31,0.175-0.312,0.466-0.006,0.646l37.279,21.937c0.308,0.182,0.812,0.182,1.117,0.005l15.839-9.228    C77.636,65.747,77.636,65.453,77.329,65.274z M72.394,62.977l1.714,0.994c0.138,0.08,0.12,0.221-0.041,0.315l-0.479,0.279    c-0.161,0.093-0.405,0.104-0.542,0.022l-1.714-0.994c-0.137-0.081-0.12-0.221,0.041-0.315l0.481-0.279    C72.011,62.905,72.255,62.895,72.394,62.977z M30.141,54.988l0.48-0.279c0.161-0.093,0.404-0.103,0.542-0.022l1.712,0.994    c0.14,0.082,0.123,0.223-0.038,0.316l-0.48,0.278c-0.161,0.093-0.404,0.103-0.542,0.023l-1.712-0.996    C29.963,55.222,29.98,55.082,30.141,54.988z M29.79,54.785c-0.16,0.093-0.403,0.103-0.542,0.023l-1.712-0.995    c-0.14-0.081-0.122-0.221,0.039-0.315l0.48-0.279c0.16-0.093,0.404-0.104,0.542-0.021l1.712,0.994    c0.139,0.08,0.121,0.221-0.04,0.314L29.79,54.785z M32.619,55.05c-0.14-0.081-0.121-0.221,0.04-0.315l1.949-1.132    c0.16-0.094,0.403-0.104,0.543-0.023l1.688,0.982c0.14,0.08,0.122,0.222-0.038,0.315l-1.951,1.132    c-0.161,0.093-0.404,0.104-0.542,0.022L32.619,55.05z M58.144,60.235l-1.949,1.132c-0.16,0.094-0.404,0.104-0.542,0.022    l-1.688-0.98c-0.141-0.081-0.121-0.222,0.039-0.315l1.95-1.132c0.161-0.093,0.402-0.103,0.543-0.023l1.688,0.98    C58.322,60.001,58.305,60.142,58.144,60.235z M58.633,60.52c0.16-0.093,0.404-0.104,0.544-0.023l1.688,0.981    c0.14,0.081,0.123,0.222-0.038,0.315l-1.951,1.132c-0.161,0.092-0.402,0.104-0.543,0.022l-1.688-0.98    c-0.137-0.082-0.12-0.221,0.039-0.315L58.633,60.52z M55.464,58.678l-1.949,1.133c-0.161,0.093-0.403,0.104-0.544,0.024    l-1.688-0.981c-0.139-0.081-0.122-0.223,0.04-0.316l1.946-1.132c0.164-0.093,0.406-0.103,0.544-0.021l1.689,0.98    C55.643,58.444,55.626,58.584,55.464,58.678z M52.781,57.121l-1.946,1.132c-0.16,0.093-0.403,0.104-0.543,0.024l-1.689-0.982    c-0.139-0.081-0.121-0.222,0.039-0.314l1.95-1.133c0.161-0.092,0.404-0.103,0.543-0.022l1.688,0.98    C52.961,56.888,52.945,57.028,52.781,57.121z M50.103,55.565l-1.95,1.132c-0.16,0.094-0.404,0.104-0.542,0.022l-1.689-0.981    c-0.139-0.08-0.122-0.221,0.038-0.314l1.951-1.133c0.16-0.093,0.403-0.103,0.542-0.022l1.69,0.98    C50.281,55.331,50.264,55.471,50.103,55.565z M47.422,54.007l-1.95,1.132c-0.161,0.093-0.404,0.103-0.542,0.024l-1.688-0.981    c-0.139-0.081-0.123-0.223,0.038-0.315l1.951-1.133c0.16-0.093,0.403-0.103,0.542-0.022l1.689,0.981    C47.6,53.773,47.582,53.915,47.422,54.007z M44.741,52.451l-1.951,1.132c-0.16,0.094-0.402,0.104-0.542,0.023l-1.688-0.981    c-0.138-0.081-0.122-0.222,0.039-0.315l1.951-1.132c0.16-0.092,0.403-0.104,0.542-0.022l1.688,0.981    C44.919,52.217,44.902,52.357,44.741,52.451z M42.061,50.895l-1.95,1.132c-0.161,0.093-0.403,0.104-0.542,0.021l-1.688-0.98    c-0.139-0.08-0.123-0.221,0.04-0.315l1.95-1.132c0.16-0.093,0.403-0.103,0.542-0.023l1.688,0.98    C42.238,50.659,42.221,50.8,42.061,50.895z M39.636,52.649l1.688,0.981c0.14,0.081,0.123,0.222-0.037,0.315l-1.951,1.133    c-0.161,0.094-0.404,0.104-0.543,0.022l-1.688-0.981c-0.139-0.08-0.122-0.222,0.039-0.314l1.95-1.133    C39.254,52.579,39.497,52.568,39.636,52.649z M39.726,55.303l1.948-1.132c0.162-0.094,0.404-0.104,0.544-0.022l1.688,0.981    c0.14,0.08,0.123,0.222-0.039,0.315l-1.95,1.132c-0.161,0.093-0.403,0.103-0.542,0.023l-1.688-0.981    C39.547,55.538,39.564,55.396,39.726,55.303z M42.329,56.816l1.949-1.134c0.161-0.092,0.404-0.103,0.543-0.021l1.69,0.981    c0.137,0.08,0.12,0.22-0.04,0.314l-1.951,1.132c-0.16,0.093-0.403,0.104-0.542,0.023l-1.689-0.98    C42.151,57.051,42.169,56.909,42.329,56.816z M44.91,58.315l1.95-1.132c0.161-0.094,0.404-0.104,0.542-0.023l1.688,0.98    c0.14,0.082,0.123,0.222-0.039,0.315l-1.95,1.133c-0.161,0.093-0.404,0.103-0.542,0.022l-1.689-0.981    C44.732,58.549,44.75,58.409,44.91,58.315z M47.538,59.842l1.95-1.134c0.159-0.093,0.403-0.103,0.542-0.022l1.688,0.981    c0.139,0.08,0.123,0.222-0.04,0.315l-1.95,1.132c-0.16,0.094-0.403,0.104-0.543,0.022l-1.687-0.981    C47.359,60.075,47.376,59.934,47.538,59.842z M50.117,61.339l1.952-1.132c0.16-0.093,0.401-0.104,0.541-0.022l1.69,0.98    c0.137,0.081,0.12,0.221-0.04,0.315l-1.95,1.132c-0.16,0.094-0.402,0.104-0.543,0.023l-1.688-0.981    C49.941,61.574,49.958,61.433,50.117,61.339z M52.725,62.852l1.948-1.132c0.159-0.094,0.404-0.104,0.541-0.022l1.69,0.98    c0.139,0.08,0.121,0.221-0.04,0.314l-1.949,1.133c-0.159,0.093-0.403,0.103-0.542,0.022l-1.69-0.98    C52.545,63.087,52.562,62.945,52.725,62.852z M55.304,64.353l1.95-1.133c0.16-0.094,0.402-0.105,0.543-0.023l1.688,0.98    c0.141,0.081,0.121,0.222-0.037,0.314l-1.95,1.134c-0.162,0.092-0.403,0.103-0.543,0.021l-1.69-0.98    C55.125,64.586,55.144,64.446,55.304,64.353z M59.355,63.504c-0.139-0.08-0.119-0.22,0.039-0.314l1.95-1.133    c0.162-0.093,0.402-0.104,0.544-0.023l1.687,0.98c0.138,0.081,0.122,0.222-0.037,0.315l-1.951,1.133    c-0.16,0.093-0.402,0.104-0.543,0.022L59.355,63.504z M62.084,64.743l1.948-1.132c0.161-0.094,0.404-0.104,0.542-0.023l1.69,0.981    c0.139,0.081,0.12,0.222-0.04,0.314l-1.95,1.132c-0.159,0.093-0.403,0.104-0.541,0.023l-1.691-0.98    C61.904,64.977,61.923,64.835,62.084,64.743z M65.717,63.831c-0.138-0.081-0.12-0.223,0.04-0.315l1.948-1.131    c0.162-0.094,0.404-0.105,0.542-0.023l1.69,0.98c0.141,0.082,0.121,0.223-0.039,0.315l-1.949,1.133    c-0.161,0.092-0.403,0.104-0.543,0.022L65.717,63.831z M67.221,62.102l-1.95,1.133c-0.158,0.093-0.402,0.103-0.54,0.022    l-1.689-0.981c-0.14-0.08-0.123-0.221,0.04-0.314l1.948-1.132c0.162-0.094,0.404-0.104,0.541-0.024l1.691,0.98    C67.4,61.868,67.382,62.009,67.221,62.102z M64.546,60.547l-1.95,1.132c-0.163,0.093-0.403,0.103-0.544,0.023l-1.688-0.981    c-0.138-0.081-0.121-0.221,0.041-0.314l1.947-1.134c0.163-0.092,0.405-0.103,0.544-0.022l1.688,0.981    C64.723,60.312,64.706,60.454,64.546,60.547z M61.87,58.992l-1.95,1.134c-0.162,0.092-0.405,0.104-0.544,0.022l-1.688-0.98    c-0.141-0.082-0.123-0.22,0.038-0.314l1.949-1.132c0.162-0.093,0.404-0.104,0.544-0.023l1.688,0.98    C62.046,58.758,62.029,58.9,61.87,58.992z M59.191,57.438l-1.95,1.133c-0.158,0.093-0.402,0.104-0.542,0.022l-1.689-0.981    c-0.138-0.08-0.12-0.221,0.041-0.315l1.95-1.132c0.158-0.093,0.402-0.103,0.541-0.022l1.69,0.981    C59.37,57.204,59.353,57.344,59.191,57.438z M56.517,55.883l-1.95,1.133c-0.161,0.093-0.404,0.103-0.544,0.022l-1.688-0.98    c-0.14-0.081-0.121-0.222,0.038-0.316l1.952-1.132c0.159-0.093,0.401-0.103,0.542-0.021l1.688,0.981    C56.693,55.649,56.675,55.79,56.517,55.883z M53.839,54.329l-1.952,1.132c-0.157,0.093-0.401,0.104-0.54,0.023l-1.688-0.981    c-0.139-0.081-0.122-0.221,0.039-0.314l1.95-1.133c0.161-0.092,0.403-0.103,0.542-0.022l1.688,0.98    C54.017,54.095,53.999,54.236,53.839,54.329z M51.163,52.774l-1.951,1.132c-0.16,0.094-0.403,0.104-0.542,0.023l-1.688-0.981    c-0.139-0.08-0.121-0.222,0.039-0.315l1.95-1.132c0.16-0.093,0.404-0.103,0.543-0.022l1.687,0.981    C51.341,52.54,51.323,52.681,51.163,52.774z M48.485,51.219l-1.95,1.133c-0.16,0.093-0.404,0.103-0.542,0.023l-1.69-0.981    c-0.138-0.081-0.121-0.222,0.04-0.315l1.95-1.132c0.16-0.093,0.403-0.104,0.542-0.022l1.689,0.98    C48.664,50.986,48.646,51.126,48.485,51.219z M45.809,49.666l-1.951,1.132c-0.159,0.094-0.402,0.104-0.542,0.023l-1.688-0.981    c-0.14-0.081-0.122-0.222,0.038-0.314l1.95-1.132c0.162-0.094,0.405-0.103,0.542-0.023l1.689,0.981    C45.987,49.431,45.968,49.573,45.809,49.666z M43.131,48.111l-1.949,1.132c-0.161,0.093-0.404,0.104-0.542,0.022l-1.688-0.979    c-0.14-0.082-0.122-0.223,0.039-0.315l1.949-1.133c0.161-0.094,0.404-0.104,0.543-0.022l1.688,0.981    C43.31,47.876,43.292,48.018,43.131,48.111z M39.419,49.022c0.139,0.08,0.122,0.222-0.039,0.315l-1.95,1.132    c-0.161,0.093-0.403,0.104-0.543,0.022L35.2,49.51c-0.14-0.08-0.123-0.221,0.039-0.314l1.949-1.132    c0.161-0.093,0.404-0.104,0.542-0.022L39.419,49.022z M37.008,51.123l1.689,0.981c0.139,0.082,0.122,0.223-0.039,0.316    l-1.949,1.132c-0.161,0.094-0.403,0.104-0.542,0.023l-1.689-0.981c-0.139-0.081-0.122-0.221,0.039-0.315l1.95-1.132    C36.627,51.053,36.87,51.043,37.008,51.123z M35.239,56.235l1.951-1.133c0.16-0.093,0.403-0.103,0.542-0.021l1.689,0.981    c0.138,0.08,0.123,0.22-0.039,0.314l-1.95,1.133c-0.161,0.093-0.403,0.103-0.543,0.023l-1.688-0.98    C35.062,56.469,35.078,56.328,35.239,56.235z M37.866,57.759l1.95-1.132c0.161-0.093,0.404-0.103,0.542-0.022l1.688,0.981    c0.138,0.081,0.123,0.222-0.039,0.315l-1.95,1.132c-0.16,0.093-0.403,0.103-0.542,0.023l-1.688-0.98    C37.688,57.995,37.706,57.853,37.866,57.759z M40.447,59.26l1.95-1.132c0.162-0.094,0.403-0.104,0.542-0.023l1.689,0.98    c0.139,0.082,0.121,0.223-0.039,0.315l-1.951,1.133c-0.161,0.094-0.403,0.103-0.542,0.022l-1.689-0.981    C40.27,59.494,40.286,59.353,40.447,59.26z M43.052,60.772l1.95-1.132c0.16-0.094,0.403-0.103,0.542-0.023l1.688,0.98    c0.14,0.082,0.122,0.223-0.038,0.316l-1.951,1.132c-0.161,0.094-0.403,0.104-0.543,0.022l-1.688-0.981    C42.874,61.007,42.891,60.866,43.052,60.772z M45.633,62.271l1.951-1.133c0.159-0.093,0.403-0.103,0.542-0.022l1.689,0.981    c0.138,0.08,0.121,0.221-0.04,0.315l-1.95,1.132c-0.161,0.093-0.403,0.103-0.542,0.022l-1.688-0.98    C45.455,62.505,45.472,62.364,45.633,62.271z M48.259,63.796l1.951-1.132c0.162-0.093,0.402-0.103,0.544-0.022l1.687,0.98    c0.138,0.081,0.121,0.221-0.037,0.315l-1.952,1.132c-0.16,0.093-0.403,0.103-0.542,0.023l-1.688-0.981    C48.082,64.031,48.099,63.89,48.259,63.796z M50.842,65.296l1.949-1.132c0.161-0.094,0.404-0.104,0.542-0.023l1.688,0.98    c0.141,0.082,0.123,0.223-0.037,0.316l-1.95,1.132c-0.162,0.094-0.403,0.103-0.542,0.022l-1.689-0.981    C50.663,65.53,50.681,65.39,50.842,65.296z M53.444,66.809l1.952-1.132c0.159-0.094,0.401-0.105,0.541-0.023l1.689,0.98    c0.14,0.082,0.12,0.223-0.039,0.316l-1.949,1.132c-0.162,0.092-0.403,0.104-0.544,0.021l-1.688-0.979    C53.266,67.042,53.286,66.903,53.444,66.809z M56.026,68.308l1.95-1.132c0.16-0.093,0.403-0.103,0.542-0.022l1.689,0.981    c0.139,0.08,0.122,0.221-0.039,0.314l-1.951,1.133c-0.157,0.093-0.402,0.103-0.54,0.023l-1.69-0.98    C55.85,68.542,55.866,68.401,56.026,68.308z M60.175,67.144c-0.16,0.093-0.404,0.104-0.542,0.023l-1.69-0.981    c-0.139-0.081-0.121-0.223,0.041-0.315l1.95-1.133c0.158-0.092,0.402-0.103,0.54-0.022l1.69,0.98    c0.139,0.082,0.123,0.223-0.04,0.315L60.175,67.144z M60.548,67.394l1.951-1.134c0.16-0.092,0.401-0.103,0.542-0.022l1.689,0.981    c0.138,0.081,0.12,0.222-0.041,0.313l-1.949,1.132c-0.16,0.094-0.404,0.104-0.542,0.023l-1.688-0.981    C60.369,67.626,60.386,67.485,60.548,67.394z M64.697,66.631c-0.139-0.081-0.122-0.222,0.039-0.314l1.95-1.132    c0.161-0.093,0.402-0.105,0.542-0.023l1.688,0.98c0.138,0.082,0.122,0.222-0.039,0.315l-1.951,1.133    c-0.159,0.092-0.401,0.103-0.54,0.022L64.697,66.631z M68.394,65.386c-0.139-0.081-0.121-0.222,0.04-0.316l1.949-1.132    c0.16-0.094,0.403-0.104,0.542-0.022l1.69,0.981c0.139,0.079,0.121,0.221-0.04,0.314l-1.949,1.132    c-0.16,0.093-0.404,0.104-0.542,0.023L68.394,65.386z M69.654,61.384l1.714,0.995c0.137,0.081,0.121,0.222-0.041,0.315    l-0.479,0.28c-0.16,0.092-0.403,0.104-0.542,0.022l-1.714-0.994c-0.138-0.081-0.12-0.223,0.041-0.315l0.48-0.278    C69.271,61.315,69.517,61.305,69.654,61.384z M66.915,59.794l1.714,0.995c0.138,0.081,0.121,0.222-0.041,0.314l-0.48,0.279    c-0.158,0.095-0.402,0.104-0.542,0.024l-1.712-0.995c-0.139-0.081-0.12-0.222,0.039-0.315l0.48-0.279    C66.533,59.723,66.777,59.713,66.915,59.794z M64.177,58.203l1.712,0.995c0.14,0.081,0.122,0.222-0.039,0.315l-0.481,0.279    c-0.159,0.093-0.401,0.103-0.542,0.022l-1.712-0.995c-0.138-0.08-0.12-0.222,0.04-0.314l0.48-0.279    C63.795,58.133,64.038,58.123,64.177,58.203z M61.437,56.612l1.713,0.995c0.139,0.081,0.122,0.223-0.039,0.315l-0.48,0.279    c-0.16,0.093-0.403,0.103-0.54,0.023l-1.715-0.994c-0.138-0.081-0.121-0.222,0.04-0.316l0.48-0.279    C61.055,56.542,61.3,56.531,61.437,56.612z M58.696,55.022l1.716,0.994c0.138,0.082,0.121,0.222-0.041,0.314l-0.48,0.28    c-0.159,0.093-0.404,0.104-0.54,0.021l-1.714-0.995c-0.14-0.08-0.122-0.22,0.039-0.313l0.48-0.28    C58.316,54.951,58.561,54.941,58.696,55.022z M55.96,53.431l1.712,0.996c0.138,0.08,0.121,0.221-0.039,0.313l-0.481,0.279    c-0.16,0.093-0.402,0.104-0.541,0.022l-1.713-0.995c-0.138-0.081-0.122-0.222,0.04-0.315l0.479-0.278    C55.577,53.361,55.82,53.35,55.96,53.431z M53.221,51.84l1.712,0.994c0.139,0.082,0.12,0.222-0.039,0.316l-0.48,0.278    c-0.16,0.094-0.404,0.103-0.542,0.022l-1.713-0.994c-0.139-0.081-0.122-0.222,0.04-0.315l0.479-0.28    C52.839,51.769,53.081,51.759,53.221,51.84z M50.482,50.25l1.71,0.994c0.14,0.08,0.123,0.222-0.038,0.315l-0.481,0.278    c-0.158,0.094-0.403,0.104-0.541,0.023l-1.713-0.995c-0.14-0.081-0.12-0.221,0.039-0.315l0.481-0.279    C50.099,50.178,50.341,50.169,50.482,50.25z M47.742,48.658l1.712,0.995c0.139,0.08,0.121,0.221-0.04,0.314l-0.481,0.279    c-0.159,0.093-0.402,0.104-0.542,0.022l-1.712-0.994c-0.139-0.082-0.121-0.223,0.04-0.316l0.48-0.278    C47.359,48.588,47.602,48.577,47.742,48.658z M45.002,47.067l1.712,0.995c0.14,0.081,0.122,0.221-0.039,0.314l-0.479,0.279    c-0.161,0.093-0.404,0.103-0.542,0.023l-1.712-0.995c-0.14-0.08-0.123-0.222,0.038-0.314l0.48-0.279    C44.62,46.997,44.864,46.987,45.002,47.067z M42.263,45.476l1.712,0.995c0.139,0.081,0.121,0.221-0.039,0.314l-0.481,0.279    c-0.16,0.094-0.403,0.104-0.542,0.022l-1.712-0.994c-0.139-0.081-0.122-0.223,0.04-0.315l0.48-0.278    C41.882,45.405,42.125,45.396,42.263,45.476z M38.502,44.187l0.478-0.279c0.162-0.093,0.405-0.104,0.542-0.023l1.713,0.994    c0.139,0.082,0.122,0.223-0.038,0.316l-0.481,0.278c-0.161,0.093-0.404,0.103-0.542,0.022l-1.712-0.995    C38.324,44.422,38.34,44.28,38.502,44.187z M35.68,45.951l1.949-1.132c0.161-0.094,0.398-0.107,0.528-0.032l2.614,1.518    c0.131,0.077,0.107,0.214-0.053,0.306l-1.95,1.134c-0.161,0.092-0.396,0.106-0.528,0.031l-2.613-1.518    C35.495,46.182,35.518,46.045,35.68,45.951z M32.557,47.639l1.95-1.132c0.16-0.094,0.403-0.104,0.542-0.022l1.688,0.98    c0.141,0.081,0.123,0.222-0.037,0.315l-1.95,1.132c-0.162,0.094-0.405,0.103-0.542,0.024l-1.689-0.981    C32.378,47.873,32.397,47.732,32.557,47.639z M29.538,49.393l1.95-1.132c0.161-0.093,0.417-0.095,0.575-0.003l3.697,2.147    c0.158,0.091,0.155,0.241-0.005,0.333l-1.95,1.134c-0.161,0.092-0.417,0.093-0.575,0.003l-3.697-2.147    C29.375,49.635,29.377,49.486,29.538,49.393z M26.508,51.152l1.95-1.132c0.16-0.093,0.418-0.095,0.577-0.002l5.037,2.925    c0.157,0.092,0.156,0.243-0.004,0.335l-1.951,1.132c-0.161,0.094-0.418,0.094-0.577,0.003l-5.036-2.926    C26.346,51.396,26.348,51.246,26.508,51.152z M24.989,51.956l0.48-0.278c0.16-0.094,0.403-0.105,0.542-0.023l1.712,0.994    c0.14,0.081,0.121,0.223-0.039,0.316l-0.48,0.278c-0.161,0.093-0.404,0.104-0.542,0.023l-1.712-0.995    C24.811,52.189,24.83,52.048,24.989,51.956z M25.247,54.099l-1.713-0.994c-0.14-0.081-0.122-0.222,0.039-0.316l0.481-0.278    c0.16-0.093,0.402-0.104,0.542-0.023l1.712,0.994c0.138,0.081,0.12,0.223-0.04,0.315l-0.48,0.278    C25.627,54.169,25.385,54.18,25.247,54.099z M27.855,55.615l-1.712-0.994c-0.138-0.081-0.121-0.222,0.039-0.315l0.481-0.279    c0.161-0.092,0.403-0.103,0.542-0.022l1.712,0.994c0.139,0.082,0.122,0.222-0.04,0.315l-0.479,0.279    C28.237,55.685,27.995,55.695,27.855,55.615z M30.467,57.132l-1.711-0.996c-0.139-0.079-0.124-0.221,0.039-0.313l0.48-0.28    c0.161-0.093,0.403-0.103,0.542-0.022l1.712,0.995c0.139,0.081,0.121,0.222-0.039,0.314l-0.48,0.279    C30.849,57.201,30.606,57.212,30.467,57.132z M33.928,59.244l-2.415-1.403c-0.199-0.115-0.23-0.285-0.069-0.378l1.95-1.132    c0.161-0.093,0.451-0.075,0.65,0.041l2.416,1.403c0.199,0.115,0.229,0.284,0.069,0.377l-1.95,1.133    C34.419,59.376,34.126,59.359,33.928,59.244z M37.383,61.364l-2.416-1.403c-0.198-0.115-0.23-0.284-0.068-0.377l1.95-1.133    c0.16-0.093,0.451-0.075,0.649,0.04l2.415,1.403c0.199,0.116,0.23,0.286,0.07,0.378l-1.95,1.133    C37.874,61.498,37.582,61.479,37.383,61.364z M49.456,68.392l-11.118-6.458c-0.138-0.08-0.12-0.222,0.04-0.314l1.978-1.148    c0.161-0.093,0.403-0.103,0.542-0.023l11.117,6.457c0.14,0.08,0.122,0.222-0.039,0.315l-1.978,1.147    C49.839,68.462,49.596,68.472,49.456,68.392z M52.913,70.382l-2.417-1.402c-0.199-0.116-0.228-0.285-0.069-0.378l1.949-1.132    c0.162-0.095,0.453-0.075,0.652,0.041l2.414,1.401c0.199,0.117,0.229,0.286,0.068,0.378l-1.95,1.133    C53.403,70.518,53.111,70.499,52.913,70.382z M55.646,71.875l-1.688-0.981c-0.139-0.081-0.122-0.222,0.039-0.314l1.949-1.134    c0.162-0.092,0.403-0.103,0.541-0.021l1.69,0.98c0.139,0.081,0.121,0.222-0.039,0.314l-1.95,1.132    C56.028,71.945,55.786,71.955,55.646,71.875z M58.237,73.439l-1.688-0.981c-0.138-0.081-0.122-0.221,0.039-0.315l1.949-1.133    c0.161-0.092,0.405-0.102,0.543-0.021l1.688,0.981c0.142,0.08,0.124,0.221-0.037,0.314l-1.95,1.133    C58.62,73.51,58.377,73.52,58.237,73.439z M63.309,73.782l-1.952,1.132c-0.157,0.093-0.401,0.104-0.54,0.022l-1.69-0.98    c-0.138-0.082-0.12-0.222,0.04-0.314l1.95-1.133c0.159-0.093,0.404-0.103,0.542-0.023l1.69,0.981    C63.486,73.547,63.469,73.688,63.309,73.782z M66.338,72.021l-1.95,1.133c-0.16,0.093-0.418,0.094-0.578,0.002l-5.035-2.926    c-0.158-0.092-0.156-0.242,0.005-0.335l1.951-1.133c0.159-0.092,0.416-0.095,0.577-0.002l5.034,2.926    C66.501,71.778,66.499,71.929,66.338,72.021z M69.368,70.261l-1.95,1.132c-0.159,0.095-0.418,0.096-0.575,0.003l-3.696-2.147    c-0.156-0.09-0.154-0.24,0.007-0.333l1.949-1.133c0.159-0.092,0.418-0.094,0.576-0.003l3.695,2.148    C69.532,70.019,69.528,70.168,69.368,70.261z M72.397,68.501l-1.949,1.132c-0.159,0.094-0.397,0.107-0.528,0.031l-2.612-1.518    c-0.13-0.076-0.106-0.213,0.053-0.306l1.951-1.133c0.159-0.093,0.396-0.107,0.528-0.031l2.612,1.517    C72.582,68.27,72.559,68.408,72.397,68.501z M75.252,66.766l-1.948,1.132c-0.162,0.094-0.406,0.104-0.544,0.022l-1.688-0.98    c-0.141-0.081-0.12-0.222,0.037-0.314l1.952-1.133c0.16-0.094,0.401-0.103,0.542-0.023l1.688,0.981    C75.429,66.532,75.412,66.673,75.252,66.766z M76.807,65.877l-0.48,0.278c-0.16,0.093-0.403,0.104-0.542,0.023l-1.714-0.995    c-0.137-0.081-0.121-0.223,0.041-0.315l0.479-0.279c0.16-0.092,0.404-0.104,0.542-0.022l1.715,0.995    C76.984,65.642,76.967,65.784,76.807,65.877z" fill="url(#SVGIDlaptop_9_)"/>	</g></g></symbol></defs><g transform='translate(126.0,200.0) rotate(0 60.0 60.0)'><use xlink:href='#com.gliffy.newnetwork.home.Laptop' width='120.0' height='120.0'  fill="#003366"/><g ></g></g><defs>    <path d="M11.396,79.491c1.048,1.759,1.066,3.689,0.042,4.313c-1.023,0.628-2.704-0.294-3.753-2.053      c-1.044-1.758-1.065-3.689-0.042-4.312C8.669,76.816,10.347,77.733,11.396,79.491z" id="SVGIDserver_3_"/>    <clipPath id="SVGIDserver_4_">        <use overflow="visible" xlink:actuate="onLoad" xlink:href="#SVGIDserver_3_" xlink:show="embed" xlink:type="simple" xmlns:xlink="http://www.w3.org/1999/xlink"/>    </clipPath>    <linearGradient gradientUnits="userSpaceOnUse" id="SVGIDserver_1_" x1="10.5381" x2="50.7503" xlink:actuate="onLoad" xlink:show="other" xlink:type="simple" xmlns:xlink="http://www.w3.org/1999/xlink" y1="31.2178" y2="7.4423">		<stop offset="0" style="stop-color:#464646"/>		<stop offset="1" style="stop-color:#CCCCCC"/>		<a:midPointStop offset="0" style="stop-color:#464646"/>		<a:midPointStop offset="0.5" style="stop-color:#464646"/>		<a:midPointStop offset="1" style="stop-color:#CCCCCC"/>	</linearGradient><linearGradient gradientUnits="userSpaceOnUse" id="SVGIDserver_2_" x1="22.9014" x2="56.9328" xlink:actuate="onLoad" xlink:show="other" xlink:type="simple" xmlns:xlink="http://www.w3.org/1999/xlink" y1="69.9111" y2="49.79">		<stop offset="0" style="stop-color:#353535"/>		<stop offset="1" style="stop-color:#949494"/>		<a:midPointStop offset="0" style="stop-color:#353535"/>		<a:midPointStop offset="0.5" style="stop-color:#353535"/>		<a:midPointStop offset="1" style="stop-color:#949494"/>	</linearGradient><linearGradient gradientUnits="userSpaceOnUse" id="SVGIDserver_5_" x1="0" x2="26.3242" xlink:actuate="onLoad" xlink:show="other" xlink:type="simple" xmlns:xlink="http://www.w3.org/1999/xlink" y1="61.4395" y2="61.4395">		<stop offset="0" style="stop-color:#565656"/>		<stop offset="0.1023" style="stop-color:#696969"/>		<stop offset="0.2979" style="stop-color:#868686"/>		<stop offset="0.4908" style="stop-color:#9C9C9C"/>		<stop offset="0.6779" style="stop-color:#A9A9A9"/>		<stop offset="0.8528" style="stop-color:#ADADAD"/>		<stop offset="1" style="stop-color:#535353"/>		<a:midPointStop offset="0" style="stop-color:#565656"/>		<a:midPointStop offset="0.3067" style="stop-color:#565656"/>		<a:midPointStop offset="0.8528" style="stop-color:#ADADAD"/>		<a:midPointStop offset="0.5" style="stop-color:#ADADAD"/>		<a:midPointStop offset="1" style="stop-color:#535353"/>	</linearGradient><symbol id="com.gliffy.newnetwork.home.Server" viewBox="0 0 64 100" preserveAspectRatio="none"><g id="Layer_0">	<rect fill="none" height="99.918" width="64"/>	<path d="M26.324,69.89V36.073C20.743,39.341,0.18,28.057,0.001,22.947c0-0.01,0-0.038-0.001-0.066v63.524h0.023   c0.46,5.161,20.76,16.25,26.301,13.012V69.89z"/></g><g id="Layer_1">	<rect fill="none" height="99.918" width="64"/>		<path d="M64,14.176c0,0-33.512,19.476-37.676,21.897C20.899,39.247,0,29.642,0,22.881   C4.341,20.346,39.186-0.001,39.186-0.001L64,14.176z" fill="url(#SVGIDserver_1_)"/>		<polygon fill="url(#SVGIDserver_2_)" points="26.227,99.481 64,77.425 64,14.176 26.324,36.073  "/>	<g>		<g>			<rect clip-path="url(#SVGIDserver_4_)" fill="#C4C6C8" height="7.613" width="5.844" x="6.619" y="76.817"/>			<path clip-path="url(#SVGIDserver_4_)" d="M11.81,79.238c0.908,1.525,0.63,3.379-0.623,4.145     c-1.252,0.767-3.003,0.146-3.912-1.376c-0.908-1.525-0.63-3.379,0.622-4.145C9.15,77.104,10.901,77.717,11.81,79.238z" fill="#C4C6C8"/>			<path clip-path="url(#SVGIDserver_4_)" d="M11.771,79.266c0.893,1.498,0.618,3.32-0.615,4.066     c-1.229,0.755-2.954,0.148-3.842-1.345c-0.897-1.506-0.619-3.32,0.611-4.074C9.158,77.158,10.878,77.764,11.771,79.266z" fill="#C5C7C9"/>			<path clip-path="url(#SVGIDserver_4_)" d="M11.732,79.285c0.877,1.475,0.611,3.262-0.6,4.004     C9.924,84.024,8.23,83.43,7.349,81.96c-0.877-1.475-0.603-3.262,0.607-4.004C9.166,77.221,10.855,77.814,11.732,79.285z" fill="#C6C8CA"/>			<path clip-path="url(#SVGIDserver_4_)" d="M11.693,79.309c0.862,1.447,0.6,3.206-0.591,3.93     c-1.19,0.731-2.853,0.145-3.715-1.302c-0.862-1.447-0.595-3.207,0.591-3.93C9.169,77.275,10.836,77.862,11.693,79.309z" fill="#C7C9CB"/>			<path clip-path="url(#SVGIDserver_4_)" d="M11.659,79.332c0.843,1.424,0.584,3.151-0.587,3.863     c-1.167,0.712-2.798,0.133-3.645-1.282C6.58,80.489,6.842,78.769,8.01,78.05C9.177,77.338,10.809,77.917,11.659,79.332z" fill="#C8CACC"/>			<path clip-path="url(#SVGIDserver_4_)" d="M11.62,79.359c0.827,1.393,0.572,3.089-0.572,3.785     c-1.148,0.708-2.753,0.141-3.58-1.251c-0.831-1.4-0.58-3.097,0.569-3.793C9.181,77.4,10.79,77.96,11.62,79.359z" fill="#C9CBCD"/>			<path clip-path="url(#SVGIDserver_4_)" d="M11.578,79.383c0.816,1.369,0.568,3.034-0.56,3.719     c-1.125,0.688-2.699,0.133-3.511-1.239c-0.819-1.369-0.568-3.034,0.557-3.719C9.189,77.455,10.762,78.011,11.578,79.383z" fill="#CACCCE"/>			<path clip-path="url(#SVGIDserver_4_)" d="M11.539,79.402c0.804,1.346,0.557,2.983-0.549,3.648     c-1.102,0.677-2.648,0.137-3.448-1.208c-0.8-1.346-0.553-2.976,0.553-3.648C9.196,77.518,10.743,78.058,11.539,79.402z" fill="#CBCDCF"/>			<path clip-path="url(#SVGIDserver_4_)" d="M11.5,79.426c0.789,1.322,0.549,2.921-0.537,3.582     c-1.083,0.665-2.598,0.125-3.382-1.188c-0.785-1.322-0.542-2.921,0.537-3.582C9.205,77.572,10.716,78.112,11.5,79.426z" fill="#CCCED0"/>			<path clip-path="url(#SVGIDserver_4_)" d="M11.466,79.453c0.765,1.291,0.533,2.862-0.53,3.512     C9.873,83.61,8.388,83.09,7.62,81.8c-0.77-1.299-0.533-2.87,0.529-3.512C9.208,77.635,10.696,78.155,11.466,79.453z" fill="#CDCFD1"/>			<path clip-path="url(#SVGIDserver_4_)" d="M11.427,79.477c0.75,1.264,0.521,2.808-0.522,3.438     c-1.04,0.642-2.494,0.121-3.247-1.146c-0.754-1.264-0.522-2.8,0.514-3.438C9.216,77.697,10.669,78.21,11.427,79.477z" fill="#CED0D1"/>			<path clip-path="url(#SVGIDserver_4_)" d="M11.388,79.496c0.734,1.244,0.511,2.749-0.51,3.375     c-1.021,0.617-2.443,0.121-3.186-1.122C6.955,80.505,7.187,79,8.203,78.382C9.224,77.756,10.65,78.253,11.388,79.496z" fill="#CFD1D2"/>			<path clip-path="url(#SVGIDserver_4_)" d="M11.35,79.52c0.723,1.217,0.502,2.694-0.499,3.301     c-0.997,0.605-2.393,0.117-3.116-1.095c-0.727-1.217-0.503-2.694,0.499-3.301C9.227,77.818,10.623,78.308,11.35,79.52z" fill="#D0D2D3"/>			<path clip-path="url(#SVGIDserver_4_)" d="M11.308,79.547c0.711,1.189,0.495,2.636-0.483,3.23     c-0.979,0.594-2.343,0.113-3.05-1.071c-0.711-1.197-0.491-2.636,0.483-3.23C9.235,77.874,10.604,78.354,11.308,79.547z" fill="#D1D3D4"/>			<path clip-path="url(#SVGIDserver_4_)" d="M11.273,79.57c0.691,1.162,0.475,2.573-0.476,3.156     c-0.956,0.582-2.292,0.113-2.985-1.052c-0.691-1.162-0.479-2.573,0.476-3.156C9.243,77.937,10.576,78.405,11.273,79.57z" fill="#D2D4D5"/>			<path clip-path="url(#SVGIDserver_4_)" d="M11.233,79.59c0.677,1.143,0.472,2.522-0.467,3.094     c-0.932,0.562-2.238,0.109-2.915-1.028c-0.676-1.143-0.472-2.522,0.464-3.086C9.25,77.999,10.557,78.452,11.233,79.59z" fill="#D3D5D6"/>			<path clip-path="url(#SVGIDserver_4_)" d="M11.195,79.613c0.661,1.115,0.457,2.46-0.452,3.02     c-0.912,0.559-2.191,0.109-2.857-1.001c-0.657-1.107-0.456-2.46,0.457-3.02C9.258,78.054,10.53,78.503,11.195,79.613z" fill="#D4D6D7"/>			<path clip-path="url(#SVGIDserver_4_)" d="M11.156,79.633c0.65,1.092,0.444,2.409-0.444,2.957     c-0.89,0.539-2.138,0.105-2.787-0.978c-0.646-1.084-0.445-2.409,0.444-2.957C9.262,78.116,10.511,78.55,11.156,79.633z" fill="#D5D7D8"/>			<path clip-path="url(#SVGIDserver_4_)" d="M11.118,79.664c0.63,1.061,0.437,2.347-0.437,2.874     c-0.87,0.536-2.084,0.103-2.718-0.958c-0.63-1.052-0.437-2.346,0.437-2.874C9.27,78.179,10.484,78.604,11.118,79.664z" fill="#D6D8D9"/>			<path clip-path="url(#SVGIDserver_4_)" d="M11.083,79.684c0.61,1.041,0.421,2.288-0.425,2.812     c-0.851,0.517-2.037,0.103-2.652-0.935c-0.619-1.032-0.429-2.287,0.421-2.812C9.274,78.233,10.465,78.647,11.083,79.684z" fill="#D7D9DA"/>			<path clip-path="url(#SVGIDserver_4_)" d="M11.041,79.707c0.599,1.014,0.414,2.233-0.414,2.737     c-0.827,0.505-1.983,0.098-2.583-0.907c-0.603-1.005-0.417-2.232,0.41-2.736C9.281,78.296,10.438,78.702,11.041,79.707z" fill="#D8DADB"/>			<path clip-path="url(#SVGIDserver_4_)" d="M11.002,79.731c0.583,0.985,0.406,2.178-0.398,2.67     c-0.808,0.493-1.937,0.098-2.524-0.888c-0.584-0.978-0.402-2.178,0.406-2.67C9.293,78.351,10.418,78.745,11.002,79.731z" fill="#D9DBDC"/>			<path clip-path="url(#SVGIDserver_4_)" d="M10.963,79.759c0.572,0.958,0.394,2.111-0.391,2.592     c-0.785,0.481-1.886,0.094-2.455-0.864c-0.564-0.95-0.395-2.111,0.39-2.592C9.297,78.413,10.392,78.801,10.963,79.759z" fill="#DADCDD"/>			<path clip-path="url(#SVGIDserver_4_)" d="M10.925,79.778c0.556,0.927,0.383,2.064-0.379,2.529     c-0.765,0.47-1.832,0.09-2.389-0.841c-0.553-0.927-0.383-2.064,0.383-2.529C9.305,78.476,10.372,78.848,10.925,79.778z" fill="#DBDDDE"/>			<path clip-path="url(#SVGIDserver_4_)" d="M10.89,79.802c0.538,0.899,0.367,2.01-0.371,2.455     c-0.743,0.458-1.782,0.09-2.324-0.813c-0.537-0.899-0.375-2.01,0.367-2.455C9.309,78.53,10.353,78.898,10.89,79.802z" fill="#DCDEDF"/>			<path clip-path="url(#SVGIDserver_4_)" d="M10.847,79.825c0.526,0.876,0.363,1.947-0.359,2.389     C9.765,82.652,8.756,82.3,8.234,81.42c-0.521-0.876-0.363-1.947,0.36-2.389C9.316,78.593,10.325,78.945,10.847,79.825z" fill="#DDDFE0"/>			<path clip-path="url(#SVGIDserver_4_)" d="M10.809,79.853c0.51,0.849,0.352,1.889-0.348,2.311     c-0.7,0.431-1.682,0.086-2.188-0.763c-0.506-0.856-0.353-1.896,0.352-2.318C9.32,78.651,10.298,78.996,10.809,79.853z" fill="#DEE0E1"/>			<path clip-path="url(#SVGIDserver_4_)" d="M10.77,79.872c0.495,0.825,0.34,1.838-0.336,2.248     c-0.681,0.41-1.631,0.082-2.123-0.747c-0.491-0.825-0.34-1.838,0.337-2.248C9.328,78.714,10.279,79.043,10.77,79.872z" fill="#DFE1E2"/>			<path clip-path="url(#SVGIDserver_4_)" d="M10.731,79.896c0.479,0.798,0.333,1.775-0.324,2.174     c-0.661,0.406-1.577,0.078-2.057-0.72c-0.479-0.798-0.332-1.775,0.329-2.174C9.332,78.777,10.259,79.098,10.731,79.896z" fill="#E0E2E3"/>			<path clip-path="url(#SVGIDserver_4_)" d="M10.696,79.919c0.46,0.774,0.317,1.721-0.32,2.107     c-0.634,0.387-1.527,0.078-1.988-0.7c-0.463-0.774-0.32-1.721,0.313-2.107C9.343,78.832,10.232,79.141,10.696,79.919z" fill="#E2E3E4"/>			<path clip-path="url(#SVGIDserver_4_)" d="M10.658,79.946c0.444,0.743,0.306,1.662-0.305,2.029     c-0.619,0.375-1.481,0.074-1.925-0.669c-0.449-0.751-0.309-1.662,0.305-2.037C9.351,78.895,10.213,79.195,10.658,79.946z" fill="#E3E3E4"/>			<path clip-path="url(#SVGIDserver_4_)" d="M10.619,79.966c0.429,0.724,0.297,1.603-0.297,1.967     c-0.592,0.363-1.427,0.074-1.859-0.653c-0.425-0.724-0.298-1.604,0.301-1.967C9.354,78.949,10.186,79.238,10.619,79.966z" fill="#E4E4E5"/>			<path clip-path="url(#SVGIDserver_4_)" d="M10.576,79.989c0.418,0.696,0.291,1.548-0.282,1.9     c-0.576,0.344-1.376,0.062-1.793-0.634c-0.41-0.696-0.286-1.549,0.286-1.893C9.363,79.012,10.167,79.293,10.576,79.989z" fill="#E5E5E6"/>			<path clip-path="url(#SVGIDserver_4_)" d="M10.538,80.013c0.406,0.673,0.279,1.493-0.27,1.826     c-0.553,0.332-1.326,0.066-1.724-0.606c-0.402-0.673-0.279-1.485,0.274-1.826C9.367,79.074,10.14,79.34,10.538,80.013z" fill="#E6E6E7"/>			<path clip-path="url(#SVGIDserver_4_)" d="M10.503,80.04c0.387,0.642,0.267,1.427-0.267,1.756     c-0.529,0.32-1.271,0.059-1.654-0.583c-0.387-0.649-0.271-1.435,0.263-1.756C9.374,79.129,10.121,79.391,10.503,80.04z" fill="#E7E7E8"/>			<path clip-path="url(#SVGIDserver_4_)" d="M10.465,80.06c0.371,0.618,0.254,1.376-0.251,1.686     c-0.515,0.309-1.225,0.062-1.593-0.56C8.25,80.567,8.362,79.81,8.872,79.5C9.382,79.191,10.093,79.438,10.465,80.06z" fill="#E8E8E9"/>			<path clip-path="url(#SVGIDserver_4_)" d="M10.426,80.083c0.351,0.595,0.243,1.321-0.244,1.619     c-0.487,0.297-1.171,0.055-1.527-0.54c-0.352-0.595-0.244-1.313,0.244-1.611C9.39,79.254,10.074,79.488,10.426,80.083z" fill="#E9E9EA"/>			<path clip-path="url(#SVGIDserver_4_)" d="M10.387,80.106c0.336,0.567,0.236,1.259-0.236,1.545     c-0.464,0.285-1.117,0.059-1.458-0.513c-0.336-0.567-0.235-1.259,0.236-1.545C9.398,79.309,10.047,79.535,10.387,80.106z" fill="#EAEAEB"/>			<path clip-path="url(#SVGIDserver_4_)" d="M10.353,80.134c0.316,0.54,0.22,1.2-0.225,1.475     c-0.444,0.266-1.07,0.047-1.396-0.489c-0.325-0.548-0.224-1.208,0.225-1.475C9.402,79.371,10.028,79.59,10.353,80.134z" fill="#EBEBEC"/>			<path clip-path="url(#SVGIDserver_4_)" d="M10.31,80.157c0.31,0.513,0.213,1.146-0.212,1.399     c-0.425,0.263-1.016,0.056-1.326-0.469c-0.309-0.513-0.212-1.138,0.212-1.4C9.409,79.426,10,79.633,10.31,80.157z" fill="#ECECED"/>			<path clip-path="url(#SVGIDserver_4_)" d="M10.271,80.177c0.294,0.493,0.205,1.087-0.197,1.337     c-0.406,0.243-0.97,0.043-1.26-0.445c-0.293-0.493-0.205-1.087,0.201-1.337C9.417,79.488,9.981,79.688,10.271,80.177z" fill="#EDEDEE"/>			<path clip-path="url(#SVGIDserver_4_)" d="M10.232,80.2c0.278,0.466,0.194,1.032-0.189,1.263     c-0.383,0.239-0.916,0.051-1.194-0.418c-0.274-0.466-0.193-1.032,0.189-1.263C9.421,79.551,9.955,79.731,10.232,80.2z" fill="#EEEEEF"/>			<path clip-path="url(#SVGIDserver_4_)" d="M10.194,80.22c0.263,0.442,0.182,0.974-0.177,1.2     c-0.364,0.22-0.866,0.039-1.13-0.395c-0.258-0.442-0.181-0.974,0.182-1.2C9.429,79.605,9.935,79.786,10.194,80.22z" fill="#EFEFF0"/>			<path clip-path="url(#SVGIDserver_4_)" d="M10.155,80.251c0.248,0.411,0.17,0.911-0.166,1.118     c-0.34,0.207-0.816,0.043-1.063-0.375c-0.248-0.411-0.174-0.911,0.166-1.118C9.437,79.668,9.908,79.841,10.155,80.251z" fill="#F0F0F1"/>			<path clip-path="url(#SVGIDserver_4_)" d="M10.121,80.271c0.232,0.392,0.158,0.86-0.162,1.056     c-0.318,0.195-0.762,0.035-0.994-0.352c-0.232-0.392-0.163-0.86,0.158-1.056S9.889,79.884,10.121,80.271z" fill="#F1F1F2"/>			<path clip-path="url(#SVGIDserver_4_)" d="M10.082,80.294c0.212,0.363,0.146,0.798-0.151,0.981     c-0.294,0.184-0.711,0.039-0.928-0.324c-0.217-0.364-0.151-0.798,0.151-0.981C9.448,79.786,9.862,79.938,10.082,80.294z" fill="#F2F2F3"/>			<path clip-path="url(#SVGIDserver_4_)" d="M10.039,80.313c0.201,0.34,0.14,0.747-0.135,0.919     c-0.275,0.172-0.661,0.031-0.862-0.301c-0.201-0.341-0.136-0.747,0.135-0.919C9.456,79.849,9.842,79.981,10.039,80.313z" fill="#F3F3F4"/>			<path clip-path="url(#SVGIDserver_4_)" d="M10,80.345c0.186,0.309,0.131,0.685-0.124,0.837     c-0.259,0.16-0.611,0.035-0.796-0.281c-0.186-0.31-0.128-0.685,0.127-0.837C9.46,79.903,9.815,80.036,10,80.345z" fill="#F4F4F5"/>			<path clip-path="url(#SVGIDserver_4_)" d="M9.962,80.364c0.169,0.285,0.12,0.626-0.117,0.774     c-0.231,0.141-0.561,0.023-0.727-0.258c-0.166-0.286-0.116-0.626,0.112-0.774C9.467,79.966,9.795,80.083,9.962,80.364z" fill="#F5F5F6"/>			<path clip-path="url(#SVGIDserver_4_)" d="M9.927,80.388c0.155,0.258,0.104,0.571-0.105,0.7     c-0.216,0.137-0.51,0.031-0.665-0.23c-0.154-0.259-0.104-0.571,0.104-0.7C9.475,80.021,9.769,80.134,9.927,80.388z" fill="#F6F6F6"/>			<path clip-path="url(#SVGIDserver_4_)" d="M9.889,80.407c0.139,0.238,0.097,0.521-0.097,0.638     c-0.189,0.117-0.459,0.02-0.595-0.207C9.058,80.599,9.1,80.317,9.293,80.2C9.479,80.083,9.749,80.181,9.889,80.407z" fill="#F7F7F7"/>			<path clip-path="url(#SVGIDserver_4_)" d="M9.85,80.438c0.124,0.207,0.085,0.454-0.089,0.556     c-0.166,0.113-0.402,0.027-0.53-0.18c-0.119-0.216-0.081-0.462,0.085-0.563C9.491,80.146,9.726,80.231,9.85,80.438z" fill="#F8F8F8"/>			<path clip-path="url(#SVGIDserver_4_)" d="M9.811,80.458c0.108,0.184,0.074,0.403-0.073,0.493     c-0.151,0.09-0.36,0.016-0.464-0.164c-0.108-0.185-0.074-0.403,0.073-0.493C9.495,80.204,9.703,80.278,9.811,80.458z" fill="#F9F9F9"/>			<path clip-path="url(#SVGIDserver_4_)" d="M9.769,80.481c0.093,0.156,0.069,0.349-0.062,0.419     c-0.124,0.078-0.301,0.02-0.395-0.137c-0.093-0.157-0.066-0.349,0.062-0.419C9.502,80.267,9.68,80.333,9.769,80.481z" fill="#FAFAFA"/>			<path clip-path="url(#SVGIDserver_4_)" d="M9.733,80.505c0.078,0.133,0.054,0.286-0.05,0.353     c-0.112,0.066-0.259,0.012-0.333-0.117c-0.077-0.134-0.054-0.286,0.051-0.353C9.51,80.329,9.657,80.376,9.733,80.505z" fill="#FBFBFB"/>			<path clip-path="url(#SVGIDserver_4_)" d="M9.695,80.532c0.062,0.102,0.043,0.228-0.042,0.282     c-0.085,0.047-0.201,0.008-0.263-0.094c-0.066-0.11-0.042-0.235,0.039-0.282C9.514,80.384,9.637,80.431,9.695,80.532z" fill="#FCFCFC"/>			<path clip-path="url(#SVGIDserver_4_)" d="M9.657,80.552c0.046,0.082,0.031,0.177-0.035,0.212     c-0.062,0.035-0.15,0.008-0.197-0.07c-0.047-0.083-0.031-0.169,0.035-0.212C9.521,80.446,9.61,80.474,9.657,80.552z" fill="#FDFDFD"/>			<path clip-path="url(#SVGIDserver_4_)" d="M9.618,80.575c0.031,0.055,0.022,0.114-0.02,0.146     c-0.042,0.023-0.104,0.004-0.135-0.051c-0.027-0.048-0.02-0.114,0.023-0.138C9.525,80.501,9.587,80.528,9.618,80.575z" fill="#FEFEFE"/>			<path clip-path="url(#SVGIDserver_4_)" d="M9.583,80.599c0.011,0.031,0.007,0.059-0.016,0.071     c-0.019,0.012-0.05,0-0.065-0.024c-0.011-0.023-0.007-0.059,0.012-0.07C9.537,80.563,9.564,80.575,9.583,80.599z" fill="#FFFFFF"/>		</g>	</g>		<path d="M1.381,61.784c-0.022-1.429,0-0.961,0-2.935c0.651,1.635,17.672,13.745,24.943,10.427v-9.213   c-8.187,2.894-24.05-8.887-24.943-10.315c-0.022-1.422,0-0.953,0-2.935c0.651,1.642,17.672,13.752,24.943,10.435v-9.214   c-8.187,2.886-24.05-8.887-24.943-10.315c-0.022-1.422,0-0.961,0-2.935c0.651,1.643,17.672,13.752,24.943,10.435v-9.146   C20.743,39.341,0.18,28.057,0.001,22.947c0-0.01,0-0.038-0.001-0.066v63.524h0.023c0.46,5.161,20.76,16.25,26.301,13.012V72.092   C18.138,74.985,2.274,63.206,1.381,61.784z M9.246,85.664c-2.151-1.257-3.882-4.29-3.876-6.776c0.006-2.502,1.753-3.504,3.9-2.248   c2.141,1.253,3.874,4.287,3.866,6.779C13.129,85.915,11.387,86.917,9.246,85.664z" fill="url(#SVGIDserver_5_)"/></g></symbol></defs><g transform='translate(556.6,200.0) rotate(0 38.4 60.0)'><use xlink:href='#com.gliffy.newnetwork.home.Server' width='76.8' height='120.0'  fill="#003366"/><g ></g></g><g transform='translate(271.0,86.0)'><line x1='0.0' y1='0.0' x2='0.0' y2='354.0' stroke-dasharray='23, 0' stroke='#000000' stroke-width='2' /></g><g transform='translate(530.0,83.0)'><line x1='0.0' y1='0.0' x2='6.0' y2='355.0' stroke-dasharray='23, 0' stroke='#000000' stroke-width='2' /></g><g transform='translate(273.0,162.0)'><line x1='0.0' y1='0.0' x2='248.5' y2='0.0' stroke-dasharray='23, 0' stroke='#000000' stroke-width='1' /><g transform='translate(249.0,0.0) rotate(180.0)'><polygon points='2.0,0 8.0,-3.0 8.0,3.0' fill='#000000' stroke='#000000' stroke-width='1.0' /></g></g><g transform='translate(530.0,343.0)'><line x1='0.0' y1='0.0' x2='-251.5' y2='-6.123233995736766E-17' stroke-dasharray='23, 0' stroke='#000000' stroke-width='1' /><g transform='translate(-252.0,0.0) rotate(360.0)'><polygon points='2.0,0 8.0,-3.0 8.0,3.0' fill='#000000' stroke='#000000' stroke-width='1.0' /></g></g><g transform='translate(303.0,110.0) rotate(0 96.0 18.5)'><g  transform='translate(0.0,23.5)'><text x='96.0' style='text-anchor: middle' y='-2.0'><tspan xml:space='preserve' font-size='12' font-family='Arial' fill='#000000' >GET /resource/1.html</tspan></text></g></g><g transform='translate(313.0,309.0) rotate(0 97.5 11.5)'><g  transform='translate(0.0,16.5)'><text x='97.5' style='text-anchor: middle' y='-2.0'><tspan xml:space='preserve' font-size='12' font-family='Arial' fill='#000000' >200 - Content-Type: text/html</tspan></text></g></g><g transform='translate(324.0,351.0) rotate(0 86.0 10.0)'><g  transform='translate(0.0,15.0)'><text x='86.0' style='text-anchor: middle' y='-2.0'><tspan xml:space='preserve' font-size='12' font-family='Arial' fill='#000000' >My content</tspan></text></g></g></svg>