<svg xmlns:gliffy="http://www.gliffy.com" xmlns:x="http://ns.adobe.com/Extensibility/1.0/" xmlns:i="http://ns.adobe.com/AdobeIllustrator/10.0/" xmlns:graph="http://ns.adobe.com/Graphs/1.0/" xmlns:a="http://ns.adobe.com/AdobeSVGViewerExtensions/3.0/" xmlns="http://www.w3.org/2000/svg" xmlns:xlink="http://www.w3.org/1999/xlink" width="938" height="596"><rect stroke="#000000" stroke-width="0" fill="#ffffff" x="0" y="0" width="937" height="595"/><defs><linearGradient gradientUnits="userSpaceOnUse" id="SVGIDlaptop_1_" x1="1.0244" x2="87.7295" xlink:actuate="onLoad" xlink:show="other" xlink:type="simple" xmlns:xlink="http://www.w3.org/1999/xlink" y1="63.3359" y2="63.3359">		<stop offset="0" style="stop-color:#D2D2D2"/>		<stop offset="1" style="stop-color:#4B4B4B"/>		<a:midPointStop offset="0" style="stop-color:#D2D2D2"/>		<a:midPointStop offset="0.5" style="stop-color:#D2D2D2"/>		<a:midPointStop offset="1" style="stop-color:#4B4B4B"/>	</linearGradient><linearGradient gradientTransform="matrix(-1 0 0 1 101.9824 0)" gradientUnits="userSpaceOnUse" id="SVGIDlaptop_2_" x1="48.2324" x2="66.1064" xlink:actuate="onLoad" xlink:show="other" xlink:type="simple" xmlns:xlink="http://www.w3.org/1999/xlink" y1="50.8892" y2="75.7486">		<stop offset="0" style="stop-color:#616161"/>		<stop offset="0.4986" style="stop-color:#A1A1A1"/>		<stop offset="1" style="stop-color:#DEDEDE"/>		<a:midPointStop offset="0" style="stop-color:#616161"/>		<a:midPointStop offset="0.4847" style="stop-color:#616161"/>		<a:midPointStop offset="1" style="stop-color:#DEDEDE"/>	</linearGradient><linearGradient gradientTransform="matrix(-1 0 0 1 101.9824 0)" gradientUnits="userSpaceOnUse" id="SVGIDlaptop_3_" x1="57.5791" x2="78.3447" xlink:actuate="onLoad" xlink:show="other" xlink:type="simple" xmlns:xlink="http://www.w3.org/1999/xlink" y1="68.2632" y2="68.2632">		<stop offset="0" style="stop-color:#FFFFFF"/>		<stop offset="0.4818" style="stop-color:#FDFDFD"/>		<stop offset="0.6553" style="stop-color:#F6F6F6"/>		<stop offset="0.779" style="stop-color:#EBEBEB"/>		<stop offset="0.879" style="stop-color:#DADADA"/>		<stop offset="0.9637" style="stop-color:#C4C4C4"/>		<stop offset="1" style="stop-color:#B8B8B8"/>		<a:midPointStop offset="0" style="stop-color:#FFFFFF"/>		<a:midPointStop offset="0.87" style="stop-color:#FFFFFF"/>		<a:midPointStop offset="1" style="stop-color:#B8B8B8"/>	</linearGradient><linearGradient gradientTransform="matrix(-1 0 0 1 101.9824 0)" gradientUnits="userSpaceOnUse" id="SVGIDlaptop_4_" x1="57.835" x2="78.124" xlink:actuate="onLoad" xlink:show="other" xlink:type="simple" xmlns:xlink="http://www.w3.org/1999/xlink" y1="68.4165" y2="68.4165">		<stop offset="0.0061" style="stop-color:#B8B8B8"/>		<stop offset="0.5179" style="stop-color:#909090"/>		<stop offset="1" style="stop-color:#6E6E6E"/>		<a:midPointStop offset="0.0061" style="stop-color:#B8B8B8"/>		<a:midPointStop offset="0.4724" style="stop-color:#B8B8B8"/>		<a:midPointStop offset="1" style="stop-color:#6E6E6E"/>	</linearGradient><linearGradient gradientTransform="matrix(-1 0 0 1 101.9824 0)" gradientUnits="userSpaceOnUse" id="SVGIDlaptop_5_" x1="41.3965" x2="42.6358" xlink:actuate="onLoad" xlink:show="other" xlink:type="simple" xmlns:xlink="http://www.w3.org/1999/xlink" y1="51.3901" y2="53.4315">		<stop offset="0" style="stop-color:#5B5B5B"/>		<stop offset="0.1038" style="stop-color:#6B6B6B"/>		<stop offset="0.351" style="stop-color:#8C8C8C"/>		<stop offset="0.5885" style="stop-color:#A3A3A3"/>		<stop offset="0.8102" style="stop-color:#B1B1B1"/>		<stop offset="1" style="stop-color:#B6B6B6"/>		<a:midPointStop offset="0" style="stop-color:#5B5B5B"/>		<a:midPointStop offset="0.3252" style="stop-color:#5B5B5B"/>		<a:midPointStop offset="1" style="stop-color:#B6B6B6"/>	</linearGradient><linearGradient gradientTransform="matrix(-1 0 0 1 101.9824 0)" gradientUnits="userSpaceOnUse" id="SVGIDlaptop_6_" x1="24.5166" x2="54.2864" xlink:actuate="onLoad" xlink:show="other" xlink:type="simple" xmlns:xlink="http://www.w3.org/1999/xlink" y1="16.2402" y2="70.0756">		<stop offset="0" style="stop-color:#CACACA"/>		<stop offset="1" style="stop-color:#505050"/>		<a:midPointStop offset="0" style="stop-color:#CACACA"/>		<a:midPointStop offset="0.5" style="stop-color:#CACACA"/>		<a:midPointStop offset="1" style="stop-color:#505050"/>	</linearGradient><linearGradient gradientUnits="userSpaceOnUse" id="SVGIDlaptop_7_" x1="39.2217" x2="94.8818" xlink:actuate="onLoad" xlink:show="other" xlink:type="simple" xmlns:xlink="http://www.w3.org/1999/xlink" y1="34.0181" y2="34.0181">		<stop offset="0" style="stop-color:#BABFC3"/>		<stop offset="1" style="stop-color:#5A7799"/>		<a:midPointStop offset="0" style="stop-color:#BABFC3"/>		<a:midPointStop offset="0.5" style="stop-color:#BABFC3"/>		<a:midPointStop offset="1" style="stop-color:#5A7799"/>	</linearGradient><linearGradient gradientUnits="userSpaceOnUse" id="SVGIDlaptop_8_" x1="43.9243" x2="54.3043" xlink:actuate="onLoad" xlink:show="other" xlink:type="simple" xmlns:xlink="http://www.w3.org/1999/xlink" y1="68.6743" y2="52.1961">			<stop offset="0" style="stop-color:#FFFFFF"/>			<stop offset="1" style="stop-color:#939393"/>			<a:midPointStop offset="0" style="stop-color:#FFFFFF"/>			<a:midPointStop offset="0.5" style="stop-color:#FFFFFF"/>			<a:midPointStop offset="1" style="stop-color:#939393"/>		</linearGradient><linearGradient gradientUnits="userSpaceOnUse" id="SVGIDlaptop_9_" x1="22.8643" x2="77.5586" xlink:actuate="onLoad" xlink:show="other" xlink:type="simple" xmlns:xlink="http://www.w3.org/1999/xlink" y1="59.3579" y2="59.3579">			<stop offset="0" style="stop-color:#939393"/>			<stop offset="1" style="stop-color:#191919"/>			<a:midPointStop offset="0" style="stop-color:#939393"/>			<a:midPointStop offset="0.5" style="stop-color:#939393"/>			<a:midPointStop offset="1" style="stop-color:#191919"/>		</linearGradient><symbol id="com.gliffy.newnetwork.home.Laptop" viewBox="0 0 100 92" preserveAspectRatio="none"><g id="Layer_0">	<rect fill="none" height="91.918" width="100"/>	<path d="M86.809,67.297c0.769,0.54,3.179-0.356,4.23-4.48l8.359-27.934c1.325-4.223,0.638-5.471-3.871-8.283   L52.72,1.551c-2.068-1.23-5.454-2.366-6.112-0.757l-9.861,35.293c-0.24,0.86,0.44,2.431,1.207,2.881L86.809,67.297z"/>	<path d="M37.798,39.014c0,0,49.447,28.65,49.681,28.794c0.466,0.287,0.75,0.88,0.766,1.393   c0.021,0.758,0.03,1.846,0.03,2.604c0,0.998-0.872,1.451-1.566,1.85L55.961,91.359C55.242,91.773,54.281,92,53.251,92   c-1.035,0-2.005-0.229-2.729-0.65L1.201,62.756c-0.693-0.4-0.907-0.785-0.947-1.5c-0.102-1.823-0.701-3.734,0.398-4.64   L28.55,40.624c0.718-0.41,2.26-1.157,3.566-1.988C33.318,37.87,36.155,37.86,37.798,39.014z"/></g><g id="Layer_1">	<rect fill="none" height="91.918" width="100"/>		<path d="M35.078,38.667c1.028,0,1.989,0.224,2.706,0.633l48.963,28.202c0.683,0.391,0.982,0.738,0.982,1.276   c0,0.538-0.439,0.896-1.123,1.286l-30.33,17.312c-0.709,0.405-1.656,0.627-2.672,0.627c-1.024,0-1.979-0.226-2.693-0.635   L2.08,59.277c-0.682-0.392-1.058-0.904-1.055-1.442s0.381-1.046,1.066-1.433l30.314-17.115   C33.114,38.887,34.064,38.667,35.078,38.667L35.078,38.667z" fill="url(#SVGIDlaptop_1_)"/>				<path d="M53.794,86.15c0.813,0,1.561-0.172,2.103-0.484l29.032-16.715c0.41-0.236,0.554-0.466,0.554-0.593   c0-0.125-0.144-0.356-0.554-0.592l-46.734-26.92c-0.548-0.316-1.307-0.49-2.133-0.49c-0.816,0-1.567,0.17-2.109,0.479L4.935,57.359   c-0.383,0.219-0.555,0.452-0.556,0.587c0,0.135,0.17,0.37,0.552,0.591l46.742,27.122C52.22,85.977,52.971,86.15,53.794,86.15   L53.794,86.15z" fill="url(#SVGIDlaptop_2_)"/>	<path d="M31.854,78.529c-0.001,0.195,0.03,1.052,0.727,1.432l16.578,9.813c0.495,0.263,0.662-0.597,0.629-0.812   c-0.036-0.246,0.039-0.676-0.6-1.057l-16.927-9.931C31.998,77.827,31.856,78.335,31.854,78.529z" fill="#D8D8D8"/>				<path d="M24.186,66.521c-0.661,0.384-0.734,0.965-0.16,1.298l10.759,6.249   c0.573,0.333,1.575,0.292,2.235-0.092l6.836-3.971c0.663-0.384,0.734-0.965,0.16-1.298l-10.758-6.249   c-0.574-0.334-1.574-0.292-2.236,0.093L24.186,66.521z" fill="url(#SVGIDlaptop_3_)"/>				<path d="M24.394,66.715c-0.647,0.375-0.717,0.943-0.158,1.269l10.513,6.106   c0.56,0.324,1.538,0.285,2.184-0.091l6.68-3.88c0.646-0.375,0.717-0.943,0.156-1.269l-10.512-6.105   c-0.56-0.326-1.538-0.285-2.186,0.091L24.394,66.715z" fill="url(#SVGIDlaptop_4_)"/>				<path d="M45.138,42.445l-1.859,1.174l-0.008,0.761l31.497,18.526l0.029-0.493c0,0,0.052-0.371,0.43-0.568   c0.438-0.229,1.105-0.551,1.257-0.637c0.345-0.191,0.72-0.544-0.057-1.01c-0.282-0.168-30.333-17.793-30.333-17.793L45.138,42.445z   " fill="url(#SVGIDlaptop_5_)"/>	<path d="M69.374,82.573c0,0.179,0.128,0.252,0.28,0.163l2.862-1.662c0.152-0.089,0.278-0.308,0.278-0.487v-0.792   c0-0.178-0.126-0.251-0.278-0.161l-2.862,1.661c-0.152,0.088-0.28,0.308-0.28,0.486V82.573z" fill="#C9C9C9"/>	<path d="M77.91,77.421c0,0.178,0.126,0.252,0.281,0.163l2.858-1.662c0.155-0.09,0.28-0.309,0.28-0.487v-0.793   c0-0.178-0.125-0.251-0.28-0.161l-2.858,1.661c-0.155,0.089-0.281,0.308-0.281,0.487V77.421z" fill="#C9C9C9"/>	<path d="M73.709,80.019c0,0.178,0.126,0.252,0.28,0.162l2.859-1.662c0.153-0.09,0.279-0.309,0.279-0.488V77.24   c0-0.179-0.126-0.252-0.279-0.162l-2.859,1.662c-0.154,0.088-0.28,0.309-0.28,0.485V80.019z" fill="#C9C9C9"/>	<path d="M18.688,71.309c0,0.335,0.26,0.766,0.58,0.959c0.32,0.194,0.578,0.079,0.578-0.257   c0-0.335-0.258-0.765-0.578-0.959C18.948,70.859,18.688,70.973,18.688,71.309z" fill="#FFFFFF"/>	<path d="M21.309,72.741c0,0.226,0.181,0.513,0.405,0.643l6.801,3.951c0.224,0.129,0.405,0.052,0.405-0.173l0,0   c0-0.225-0.182-0.513-0.405-0.642l-6.801-3.951C21.49,72.439,21.309,72.517,21.309,72.741L21.309,72.741z" fill="#D6D6D6"/>				<path d="M86.685,66.926c0.761,0.447,1.586,0.115,1.831-0.737l9.917-34.454   c0.245-0.853-0.178-1.914-0.941-2.36L48.708,0.878c-0.764-0.445-1.585-0.112-1.824,0.743l-9.688,34.471   c-0.241,0.855,0.187,1.918,0.949,2.365L86.685,66.926z" fill="url(#SVGIDlaptop_6_)"/>		<path d="M84.05,63.927c0.769,0.45,1.599,0.116,1.845-0.742l8.918-30.983c0.244-0.858-0.18-1.927-0.948-2.375   L49.837,4.108C49.068,3.66,48.242,3.996,48,4.854l-8.711,30.998c-0.241,0.861,0.189,1.933,0.955,2.382L84.05,63.927z" fill="url(#SVGIDlaptop_7_)"/>	<g>				<path d="M77.011,65.879c0.307-0.18,0.307-0.474,0.002-0.653L39.85,43.521    c-0.306-0.18-0.811-0.184-1.121-0.009l-15.947,9.007c-0.31,0.175-0.312,0.465-0.007,0.646l37.28,21.938    c0.307,0.181,0.81,0.182,1.117,0.004L77.011,65.879z" fill="url(#SVGIDlaptop_8_)"/>				<path d="M77.329,65.274L40.167,43.567c-0.308-0.179-0.812-0.182-1.121-0.008l-15.948,9.007    c-0.31,0.175-0.312,0.466-0.006,0.646l37.279,21.937c0.308,0.182,0.812,0.182,1.117,0.005l15.839-9.228    C77.636,65.747,77.636,65.453,77.329,65.274z M72.394,62.977l1.714,0.994c0.138,0.08,0.12,0.221-0.041,0.315l-0.479,0.279    c-0.161,0.093-0.405,0.104-0.542,0.022l-1.714-0.994c-0.137-0.081-0.12-0.221,0.041-0.315l0.481-0.279    C72.011,62.905,72.255,62.895,72.394,62.977z M30.141,54.988l0.48-0.279c0.161-0.093,0.404-0.103,0.542-0.022l1.712,0.994    c0.14,0.082,0.123,0.223-0.038,0.316l-0.48,0.278c-0.161,0.093-0.404,0.103-0.542,0.023l-1.712-0.996    C29.963,55.222,29.98,55.082,30.141,54.988z M29.79,54.785c-0.16,0.093-0.403,0.103-0.542,0.023l-1.712-0.995    c-0.14-0.081-0.122-0.221,0.039-0.315l0.48-0.279c0.16-0.093,0.404-0.104,0.542-0.021l1.712,0.994    c0.139,0.08,0.121,0.221-0.04,0.314L29.79,54.785z M32.619,55.05c-0.14-0.081-0.121-0.221,0.04-0.315l1.949-1.132    c0.16-0.094,0.403-0.104,0.543-0.023l1.688,0.982c0.14,0.08,0.122,0.222-0.038,0.315l-1.951,1.132    c-0.161,0.093-0.404,0.104-0.542,0.022L32.619,55.05z M58.144,60.235l-1.949,1.132c-0.16,0.094-0.404,0.104-0.542,0.022    l-1.688-0.98c-0.141-0.081-0.121-0.222,0.039-0.315l1.95-1.132c0.161-0.093,0.402-0.103,0.543-0.023l1.688,0.98    C58.322,60.001,58.305,60.142,58.144,60.235z M58.633,60.52c0.16-0.093,0.404-0.104,0.544-0.023l1.688,0.981    c0.14,0.081,0.123,0.222-0.038,0.315l-1.951,1.132c-0.161,0.092-0.402,0.104-0.543,0.022l-1.688-0.98    c-0.137-0.082-0.12-0.221,0.039-0.315L58.633,60.52z M55.464,58.678l-1.949,1.133c-0.161,0.093-0.403,0.104-0.544,0.024    l-1.688-0.981c-0.139-0.081-0.122-0.223,0.04-0.316l1.946-1.132c0.164-0.093,0.406-0.103,0.544-0.021l1.689,0.98    C55.643,58.444,55.626,58.584,55.464,58.678z M52.781,57.121l-1.946,1.132c-0.16,0.093-0.403,0.104-0.543,0.024l-1.689-0.982    c-0.139-0.081-0.121-0.222,0.039-0.314l1.95-1.133c0.161-0.092,0.404-0.103,0.543-0.022l1.688,0.98    C52.961,56.888,52.945,57.028,52.781,57.121z M50.103,55.565l-1.95,1.132c-0.16,0.094-0.404,0.104-0.542,0.022l-1.689-0.981    c-0.139-0.08-0.122-0.221,0.038-0.314l1.951-1.133c0.16-0.093,0.403-0.103,0.542-0.022l1.69,0.98    C50.281,55.331,50.264,55.471,50.103,55.565z M47.422,54.007l-1.95,1.132c-0.161,0.093-0.404,0.103-0.542,0.024l-1.688-0.981    c-0.139-0.081-0.123-0.223,0.038-0.315l1.951-1.133c0.16-0.093,0.403-0.103,0.542-0.022l1.689,0.981    C47.6,53.773,47.582,53.915,47.422,54.007z M44.741,52.451l-1.951,1.132c-0.16,0.094-0.402,0.104-0.542,0.023l-1.688-0.981    c-0.138-0.081-0.122-0.222,0.039-0.315l1.951-1.132c0.16-0.092,0.403-0.104,0.542-0.022l1.688,0.981    C44.919,52.217,44.902,52.357,44.741,52.451z M42.061,50.895l-1.95,1.132c-0.161,0.093-0.403,0.104-0.542,0.021l-1.688-0.98    c-0.139-0.08-0.123-0.221,0.04-0.315l1.95-1.132c0.16-0.093,0.403-0.103,0.542-0.023l1.688,0.98    C42.238,50.659,42.221,50.8,42.061,50.895z M39.636,52.649l1.688,0.981c0.14,0.081,0.123,0.222-0.037,0.315l-1.951,1.133    c-0.161,0.094-0.404,0.104-0.543,0.022l-1.688-0.981c-0.139-0.08-0.122-0.222,0.039-0.314l1.95-1.133    C39.254,52.579,39.497,52.568,39.636,52.649z M39.726,55.303l1.948-1.132c0.162-0.094,0.404-0.104,0.544-0.022l1.688,0.981    c0.14,0.08,0.123,0.222-0.039,0.315l-1.95,1.132c-0.161,0.093-0.403,0.103-0.542,0.023l-1.688-0.981    C39.547,55.538,39.564,55.396,39.726,55.303z M42.329,56.816l1.949-1.134c0.161-0.092,0.404-0.103,0.543-0.021l1.69,0.981    c0.137,0.08,0.12,0.22-0.04,0.314l-1.951,1.132c-0.16,0.093-0.403,0.104-0.542,0.023l-1.689-0.98    C42.151,57.051,42.169,56.909,42.329,56.816z M44.91,58.315l1.95-1.132c0.161-0.094,0.404-0.104,0.542-0.023l1.688,0.98    c0.14,0.082,0.123,0.222-0.039,0.315l-1.95,1.133c-0.161,0.093-0.404,0.103-0.542,0.022l-1.689-0.981    C44.732,58.549,44.75,58.409,44.91,58.315z M47.538,59.842l1.95-1.134c0.159-0.093,0.403-0.103,0.542-0.022l1.688,0.981    c0.139,0.08,0.123,0.222-0.04,0.315l-1.95,1.132c-0.16,0.094-0.403,0.104-0.543,0.022l-1.687-0.981    C47.359,60.075,47.376,59.934,47.538,59.842z M50.117,61.339l1.952-1.132c0.16-0.093,0.401-0.104,0.541-0.022l1.69,0.98    c0.137,0.081,0.12,0.221-0.04,0.315l-1.95,1.132c-0.16,0.094-0.402,0.104-0.543,0.023l-1.688-0.981    C49.941,61.574,49.958,61.433,50.117,61.339z M52.725,62.852l1.948-1.132c0.159-0.094,0.404-0.104,0.541-0.022l1.69,0.98    c0.139,0.08,0.121,0.221-0.04,0.314l-1.949,1.133c-0.159,0.093-0.403,0.103-0.542,0.022l-1.69-0.98    C52.545,63.087,52.562,62.945,52.725,62.852z M55.304,64.353l1.95-1.133c0.16-0.094,0.402-0.105,0.543-0.023l1.688,0.98    c0.141,0.081,0.121,0.222-0.037,0.314l-1.95,1.134c-0.162,0.092-0.403,0.103-0.543,0.021l-1.69-0.98    C55.125,64.586,55.144,64.446,55.304,64.353z M59.355,63.504c-0.139-0.08-0.119-0.22,0.039-0.314l1.95-1.133    c0.162-0.093,0.402-0.104,0.544-0.023l1.687,0.98c0.138,0.081,0.122,0.222-0.037,0.315l-1.951,1.133    c-0.16,0.093-0.402,0.104-0.543,0.022L59.355,63.504z M62.084,64.743l1.948-1.132c0.161-0.094,0.404-0.104,0.542-0.023l1.69,0.981    c0.139,0.081,0.12,0.222-0.04,0.314l-1.95,1.132c-0.159,0.093-0.403,0.104-0.541,0.023l-1.691-0.98    C61.904,64.977,61.923,64.835,62.084,64.743z M65.717,63.831c-0.138-0.081-0.12-0.223,0.04-0.315l1.948-1.131    c0.162-0.094,0.404-0.105,0.542-0.023l1.69,0.98c0.141,0.082,0.121,0.223-0.039,0.315l-1.949,1.133    c-0.161,0.092-0.403,0.104-0.543,0.022L65.717,63.831z M67.221,62.102l-1.95,1.133c-0.158,0.093-0.402,0.103-0.54,0.022    l-1.689-0.981c-0.14-0.08-0.123-0.221,0.04-0.314l1.948-1.132c0.162-0.094,0.404-0.104,0.541-0.024l1.691,0.98    C67.4,61.868,67.382,62.009,67.221,62.102z M64.546,60.547l-1.95,1.132c-0.163,0.093-0.403,0.103-0.544,0.023l-1.688-0.981    c-0.138-0.081-0.121-0.221,0.041-0.314l1.947-1.134c0.163-0.092,0.405-0.103,0.544-0.022l1.688,0.981    C64.723,60.312,64.706,60.454,64.546,60.547z M61.87,58.992l-1.95,1.134c-0.162,0.092-0.405,0.104-0.544,0.022l-1.688-0.98    c-0.141-0.082-0.123-0.22,0.038-0.314l1.949-1.132c0.162-0.093,0.404-0.104,0.544-0.023l1.688,0.98    C62.046,58.758,62.029,58.9,61.87,58.992z M59.191,57.438l-1.95,1.133c-0.158,0.093-0.402,0.104-0.542,0.022l-1.689-0.981    c-0.138-0.08-0.12-0.221,0.041-0.315l1.95-1.132c0.158-0.093,0.402-0.103,0.541-0.022l1.69,0.981    C59.37,57.204,59.353,57.344,59.191,57.438z M56.517,55.883l-1.95,1.133c-0.161,0.093-0.404,0.103-0.544,0.022l-1.688-0.98    c-0.14-0.081-0.121-0.222,0.038-0.316l1.952-1.132c0.159-0.093,0.401-0.103,0.542-0.021l1.688,0.981    C56.693,55.649,56.675,55.79,56.517,55.883z M53.839,54.329l-1.952,1.132c-0.157,0.093-0.401,0.104-0.54,0.023l-1.688-0.981    c-0.139-0.081-0.122-0.221,0.039-0.314l1.95-1.133c0.161-0.092,0.403-0.103,0.542-0.022l1.688,0.98    C54.017,54.095,53.999,54.236,53.839,54.329z M51.163,52.774l-1.951,1.132c-0.16,0.094-0.403,0.104-0.542,0.023l-1.688-0.981    c-0.139-0.08-0.121-0.222,0.039-0.315l1.95-1.132c0.16-0.093,0.404-0.103,0.543-0.022l1.687,0.981    C51.341,52.54,51.323,52.681,51.163,52.774z M48.485,51.219l-1.95,1.133c-0.16,0.093-0.404,0.103-0.542,0.023l-1.69-0.981    c-0.138-0.081-0.121-0.222,0.04-0.315l1.95-1.132c0.16-0.093,0.403-0.104,0.542-0.022l1.689,0.98    C48.664,50.986,48.646,51.126,48.485,51.219z M45.809,49.666l-1.951,1.132c-0.159,0.094-0.402,0.104-0.542,0.023l-1.688-0.981    c-0.14-0.081-0.122-0.222,0.038-0.314l1.95-1.132c0.162-0.094,0.405-0.103,0.542-0.023l1.689,0.981    C45.987,49.431,45.968,49.573,45.809,49.666z M43.131,48.111l-1.949,1.132c-0.161,0.093-0.404,0.104-0.542,0.022l-1.688-0.979    c-0.14-0.082-0.122-0.223,0.039-0.315l1.949-1.133c0.161-0.094,0.404-0.104,0.543-0.022l1.688,0.981    C43.31,47.876,43.292,48.018,43.131,48.111z M39.419,49.022c0.139,0.08,0.122,0.222-0.039,0.315l-1.95,1.132    c-0.161,0.093-0.403,0.104-0.543,0.022L35.2,49.51c-0.14-0.08-0.123-0.221,0.039-0.314l1.949-1.132    c0.161-0.093,0.404-0.104,0.542-0.022L39.419,49.022z M37.008,51.123l1.689,0.981c0.139,0.082,0.122,0.223-0.039,0.316    l-1.949,1.132c-0.161,0.094-0.403,0.104-0.542,0.023l-1.689-0.981c-0.139-0.081-0.122-0.221,0.039-0.315l1.95-1.132    C36.627,51.053,36.87,51.043,37.008,51.123z M35.239,56.235l1.951-1.133c0.16-0.093,0.403-0.103,0.542-0.021l1.689,0.981    c0.138,0.08,0.123,0.22-0.039,0.314l-1.95,1.133c-0.161,0.093-0.403,0.103-0.543,0.023l-1.688-0.98    C35.062,56.469,35.078,56.328,35.239,56.235z M37.866,57.759l1.95-1.132c0.161-0.093,0.404-0.103,0.542-0.022l1.688,0.981    c0.138,0.081,0.123,0.222-0.039,0.315l-1.95,1.132c-0.16,0.093-0.403,0.103-0.542,0.023l-1.688-0.98    C37.688,57.995,37.706,57.853,37.866,57.759z M40.447,59.26l1.95-1.132c0.162-0.094,0.403-0.104,0.542-0.023l1.689,0.98    c0.139,0.082,0.121,0.223-0.039,0.315l-1.951,1.133c-0.161,0.094-0.403,0.103-0.542,0.022l-1.689-0.981    C40.27,59.494,40.286,59.353,40.447,59.26z M43.052,60.772l1.95-1.132c0.16-0.094,0.403-0.103,0.542-0.023l1.688,0.98    c0.14,0.082,0.122,0.223-0.038,0.316l-1.951,1.132c-0.161,0.094-0.403,0.104-0.543,0.022l-1.688-0.981    C42.874,61.007,42.891,60.866,43.052,60.772z M45.633,62.271l1.951-1.133c0.159-0.093,0.403-0.103,0.542-0.022l1.689,0.981    c0.138,0.08,0.121,0.221-0.04,0.315l-1.95,1.132c-0.161,0.093-0.403,0.103-0.542,0.022l-1.688-0.98    C45.455,62.505,45.472,62.364,45.633,62.271z M48.259,63.796l1.951-1.132c0.162-0.093,0.402-0.103,0.544-0.022l1.687,0.98    c0.138,0.081,0.121,0.221-0.037,0.315l-1.952,1.132c-0.16,0.093-0.403,0.103-0.542,0.023l-1.688-0.981    C48.082,64.031,48.099,63.89,48.259,63.796z M50.842,65.296l1.949-1.132c0.161-0.094,0.404-0.104,0.542-0.023l1.688,0.98    c0.141,0.082,0.123,0.223-0.037,0.316l-1.95,1.132c-0.162,0.094-0.403,0.103-0.542,0.022l-1.689-0.981    C50.663,65.53,50.681,65.39,50.842,65.296z M53.444,66.809l1.952-1.132c0.159-0.094,0.401-0.105,0.541-0.023l1.689,0.98    c0.14,0.082,0.12,0.223-0.039,0.316l-1.949,1.132c-0.162,0.092-0.403,0.104-0.544,0.021l-1.688-0.979    C53.266,67.042,53.286,66.903,53.444,66.809z M56.026,68.308l1.95-1.132c0.16-0.093,0.403-0.103,0.542-0.022l1.689,0.981    c0.139,0.08,0.122,0.221-0.039,0.314l-1.951,1.133c-0.157,0.093-0.402,0.103-0.54,0.023l-1.69-0.98    C55.85,68.542,55.866,68.401,56.026,68.308z M60.175,67.144c-0.16,0.093-0.404,0.104-0.542,0.023l-1.69-0.981    c-0.139-0.081-0.121-0.223,0.041-0.315l1.95-1.133c0.158-0.092,0.402-0.103,0.54-0.022l1.69,0.98    c0.139,0.082,0.123,0.223-0.04,0.315L60.175,67.144z M60.548,67.394l1.951-1.134c0.16-0.092,0.401-0.103,0.542-0.022l1.689,0.981    c0.138,0.081,0.12,0.222-0.041,0.313l-1.949,1.132c-0.16,0.094-0.404,0.104-0.542,0.023l-1.688-0.981    C60.369,67.626,60.386,67.485,60.548,67.394z M64.697,66.631c-0.139-0.081-0.122-0.222,0.039-0.314l1.95-1.132    c0.161-0.093,0.402-0.105,0.542-0.023l1.688,0.98c0.138,0.082,0.122,0.222-0.039,0.315l-1.951,1.133    c-0.159,0.092-0.401,0.103-0.54,0.022L64.697,66.631z M68.394,65.386c-0.139-0.081-0.121-0.222,0.04-0.316l1.949-1.132    c0.16-0.094,0.403-0.104,0.542-0.022l1.69,0.981c0.139,0.079,0.121,0.221-0.04,0.314l-1.949,1.132    c-0.16,0.093-0.404,0.104-0.542,0.023L68.394,65.386z M69.654,61.384l1.714,0.995c0.137,0.081,0.121,0.222-0.041,0.315    l-0.479,0.28c-0.16,0.092-0.403,0.104-0.542,0.022l-1.714-0.994c-0.138-0.081-0.12-0.223,0.041-0.315l0.48-0.278    C69.271,61.315,69.517,61.305,69.654,61.384z M66.915,59.794l1.714,0.995c0.138,0.081,0.121,0.222-0.041,0.314l-0.48,0.279    c-0.158,0.095-0.402,0.104-0.542,0.024l-1.712-0.995c-0.139-0.081-0.12-0.222,0.039-0.315l0.48-0.279    C66.533,59.723,66.777,59.713,66.915,59.794z M64.177,58.203l1.712,0.995c0.14,0.081,0.122,0.222-0.039,0.315l-0.481,0.279    c-0.159,0.093-0.401,0.103-0.542,0.022l-1.712-0.995c-0.138-0.08-0.12-0.222,0.04-0.314l0.48-0.279    C63.795,58.133,64.038,58.123,64.177,58.203z M61.437,56.612l1.713,0.995c0.139,0.081,0.122,0.223-0.039,0.315l-0.48,0.279    c-0.16,0.093-0.403,0.103-0.54,0.023l-1.715-0.994c-0.138-0.081-0.121-0.222,0.04-0.316l0.48-0.279    C61.055,56.542,61.3,56.531,61.437,56.612z M58.696,55.022l1.716,0.994c0.138,0.082,0.121,0.222-0.041,0.314l-0.48,0.28    c-0.159,0.093-0.404,0.104-0.54,0.021l-1.714-0.995c-0.14-0.08-0.122-0.22,0.039-0.313l0.48-0.28    C58.316,54.951,58.561,54.941,58.696,55.022z M55.96,53.431l1.712,0.996c0.138,0.08,0.121,0.221-0.039,0.313l-0.481,0.279    c-0.16,0.093-0.402,0.104-0.541,0.022l-1.713-0.995c-0.138-0.081-0.122-0.222,0.04-0.315l0.479-0.278    C55.577,53.361,55.82,53.35,55.96,53.431z M53.221,51.84l1.712,0.994c0.139,0.082,0.12,0.222-0.039,0.316l-0.48,0.278    c-0.16,0.094-0.404,0.103-0.542,0.022l-1.713-0.994c-0.139-0.081-0.122-0.222,0.04-0.315l0.479-0.28    C52.839,51.769,53.081,51.759,53.221,51.84z M50.482,50.25l1.71,0.994c0.14,0.08,0.123,0.222-0.038,0.315l-0.481,0.278    c-0.158,0.094-0.403,0.104-0.541,0.023l-1.713-0.995c-0.14-0.081-0.12-0.221,0.039-0.315l0.481-0.279    C50.099,50.178,50.341,50.169,50.482,50.25z M47.742,48.658l1.712,0.995c0.139,0.08,0.121,0.221-0.04,0.314l-0.481,0.279    c-0.159,0.093-0.402,0.104-0.542,0.022l-1.712-0.994c-0.139-0.082-0.121-0.223,0.04-0.316l0.48-0.278    C47.359,48.588,47.602,48.577,47.742,48.658z M45.002,47.067l1.712,0.995c0.14,0.081,0.122,0.221-0.039,0.314l-0.479,0.279    c-0.161,0.093-0.404,0.103-0.542,0.023l-1.712-0.995c-0.14-0.08-0.123-0.222,0.038-0.314l0.48-0.279    C44.62,46.997,44.864,46.987,45.002,47.067z M42.263,45.476l1.712,0.995c0.139,0.081,0.121,0.221-0.039,0.314l-0.481,0.279    c-0.16,0.094-0.403,0.104-0.542,0.022l-1.712-0.994c-0.139-0.081-0.122-0.223,0.04-0.315l0.48-0.278    C41.882,45.405,42.125,45.396,42.263,45.476z M38.502,44.187l0.478-0.279c0.162-0.093,0.405-0.104,0.542-0.023l1.713,0.994    c0.139,0.082,0.122,0.223-0.038,0.316l-0.481,0.278c-0.161,0.093-0.404,0.103-0.542,0.022l-1.712-0.995    C38.324,44.422,38.34,44.28,38.502,44.187z M35.68,45.951l1.949-1.132c0.161-0.094,0.398-0.107,0.528-0.032l2.614,1.518    c0.131,0.077,0.107,0.214-0.053,0.306l-1.95,1.134c-0.161,0.092-0.396,0.106-0.528,0.031l-2.613-1.518    C35.495,46.182,35.518,46.045,35.68,45.951z M32.557,47.639l1.95-1.132c0.16-0.094,0.403-0.104,0.542-0.022l1.688,0.98    c0.141,0.081,0.123,0.222-0.037,0.315l-1.95,1.132c-0.162,0.094-0.405,0.103-0.542,0.024l-1.689-0.981    C32.378,47.873,32.397,47.732,32.557,47.639z M29.538,49.393l1.95-1.132c0.161-0.093,0.417-0.095,0.575-0.003l3.697,2.147    c0.158,0.091,0.155,0.241-0.005,0.333l-1.95,1.134c-0.161,0.092-0.417,0.093-0.575,0.003l-3.697-2.147    C29.375,49.635,29.377,49.486,29.538,49.393z M26.508,51.152l1.95-1.132c0.16-0.093,0.418-0.095,0.577-0.002l5.037,2.925    c0.157,0.092,0.156,0.243-0.004,0.335l-1.951,1.132c-0.161,0.094-0.418,0.094-0.577,0.003l-5.036-2.926    C26.346,51.396,26.348,51.246,26.508,51.152z M24.989,51.956l0.48-0.278c0.16-0.094,0.403-0.105,0.542-0.023l1.712,0.994    c0.14,0.081,0.121,0.223-0.039,0.316l-0.48,0.278c-0.161,0.093-0.404,0.104-0.542,0.023l-1.712-0.995    C24.811,52.189,24.83,52.048,24.989,51.956z M25.247,54.099l-1.713-0.994c-0.14-0.081-0.122-0.222,0.039-0.316l0.481-0.278    c0.16-0.093,0.402-0.104,0.542-0.023l1.712,0.994c0.138,0.081,0.12,0.223-0.04,0.315l-0.48,0.278    C25.627,54.169,25.385,54.18,25.247,54.099z M27.855,55.615l-1.712-0.994c-0.138-0.081-0.121-0.222,0.039-0.315l0.481-0.279    c0.161-0.092,0.403-0.103,0.542-0.022l1.712,0.994c0.139,0.082,0.122,0.222-0.04,0.315l-0.479,0.279    C28.237,55.685,27.995,55.695,27.855,55.615z M30.467,57.132l-1.711-0.996c-0.139-0.079-0.124-0.221,0.039-0.313l0.48-0.28    c0.161-0.093,0.403-0.103,0.542-0.022l1.712,0.995c0.139,0.081,0.121,0.222-0.039,0.314l-0.48,0.279    C30.849,57.201,30.606,57.212,30.467,57.132z M33.928,59.244l-2.415-1.403c-0.199-0.115-0.23-0.285-0.069-0.378l1.95-1.132    c0.161-0.093,0.451-0.075,0.65,0.041l2.416,1.403c0.199,0.115,0.229,0.284,0.069,0.377l-1.95,1.133    C34.419,59.376,34.126,59.359,33.928,59.244z M37.383,61.364l-2.416-1.403c-0.198-0.115-0.23-0.284-0.068-0.377l1.95-1.133    c0.16-0.093,0.451-0.075,0.649,0.04l2.415,1.403c0.199,0.116,0.23,0.286,0.07,0.378l-1.95,1.133    C37.874,61.498,37.582,61.479,37.383,61.364z M49.456,68.392l-11.118-6.458c-0.138-0.08-0.12-0.222,0.04-0.314l1.978-1.148    c0.161-0.093,0.403-0.103,0.542-0.023l11.117,6.457c0.14,0.08,0.122,0.222-0.039,0.315l-1.978,1.147    C49.839,68.462,49.596,68.472,49.456,68.392z M52.913,70.382l-2.417-1.402c-0.199-0.116-0.228-0.285-0.069-0.378l1.949-1.132    c0.162-0.095,0.453-0.075,0.652,0.041l2.414,1.401c0.199,0.117,0.229,0.286,0.068,0.378l-1.95,1.133    C53.403,70.518,53.111,70.499,52.913,70.382z M55.646,71.875l-1.688-0.981c-0.139-0.081-0.122-0.222,0.039-0.314l1.949-1.134    c0.162-0.092,0.403-0.103,0.541-0.021l1.69,0.98c0.139,0.081,0.121,0.222-0.039,0.314l-1.95,1.132    C56.028,71.945,55.786,71.955,55.646,71.875z M58.237,73.439l-1.688-0.981c-0.138-0.081-0.122-0.221,0.039-0.315l1.949-1.133    c0.161-0.092,0.405-0.102,0.543-0.021l1.688,0.981c0.142,0.08,0.124,0.221-0.037,0.314l-1.95,1.133    C58.62,73.51,58.377,73.52,58.237,73.439z M63.309,73.782l-1.952,1.132c-0.157,0.093-0.401,0.104-0.54,0.022l-1.69-0.98    c-0.138-0.082-0.12-0.222,0.04-0.314l1.95-1.133c0.159-0.093,0.404-0.103,0.542-0.023l1.69,0.981    C63.486,73.547,63.469,73.688,63.309,73.782z M66.338,72.021l-1.95,1.133c-0.16,0.093-0.418,0.094-0.578,0.002l-5.035-2.926    c-0.158-0.092-0.156-0.242,0.005-0.335l1.951-1.133c0.159-0.092,0.416-0.095,0.577-0.002l5.034,2.926    C66.501,71.778,66.499,71.929,66.338,72.021z M69.368,70.261l-1.95,1.132c-0.159,0.095-0.418,0.096-0.575,0.003l-3.696-2.147    c-0.156-0.09-0.154-0.24,0.007-0.333l1.949-1.133c0.159-0.092,0.418-0.094,0.576-0.003l3.695,2.148    C69.532,70.019,69.528,70.168,69.368,70.261z M72.397,68.501l-1.949,1.132c-0.159,0.094-0.397,0.107-0.528,0.031l-2.612-1.518    c-0.13-0.076-0.106-0.213,0.053-0.306l1.951-1.133c0.159-0.093,0.396-0.107,0.528-0.031l2.612,1.517    C72.582,68.27,72.559,68.408,72.397,68.501z M75.252,66.766l-1.948,1.132c-0.162,0.094-0.406,0.104-0.544,0.022l-1.688-0.98    c-0.141-0.081-0.12-0.222,0.037-0.314l1.952-1.133c0.16-0.094,0.401-0.103,0.542-0.023l1.688,0.981    C75.429,66.532,75.412,66.673,75.252,66.766z M76.807,65.877l-0.48,0.278c-0.16,0.093-0.403,0.104-0.542,0.023l-1.714-0.995    c-0.137-0.081-0.121-0.223,0.041-0.315l0.479-0.279c0.16-0.092,0.404-0.104,0.542-0.022l1.715,0.995    C76.984,65.642,76.967,65.784,76.807,65.877z" fill="url(#SVGIDlaptop_9_)"/>	</g></g></symbol></defs><g transform='translate(126.0,200.0) rotate(0 60.0 60.0)'><use xlink:href='#com.gliffy.newnetwork.home.Laptop' width='120.0' height='120.0'  fill="#003366"/><g ></g></g><g transform='translate(266.0,81.0)'><line x1='0.0' y1='0.0' x2='0.0' y2='354.0' stroke-dasharray='23, 0' stroke='#000000' stroke-width='2' /></g><g transform='translate(842.0,73.0)'><line x1='0.0' y1='0.0' x2='6.0' y2='355.0' stroke-dasharray='23, 0' stroke='#000000' stroke-width='2' /></g><g transform='translate(273.0,162.0)'><line x1='0.0' y1='0.0' x2='285.5' y2='0.0' stroke-dasharray='23, 0' stroke='#000000' stroke-width='1' /><g transform='translate(286.0,0.0) rotate(180.0)'><polygon points='2.0,0 8.0,-3.0 8.0,3.0' fill='#000000' stroke='#000000' stroke-width='1.0' /></g></g><g transform='translate(837.0,238.0)'><line x1='0.0' y1='0.0' x2='-256.5' y2='-6.123233995736766E-17' stroke-dasharray='23, 0' stroke='#000000' stroke-width='1' /><g transform='translate(-257.0,0.0) rotate(360.0)'><polygon points='2.0,0 8.0,-3.0 8.0,3.0' fill='#000000' stroke='#000000' stroke-width='1.0' /></g></g><g transform='translate(319.0,107.5) rotate(0 96.0 18.5)'><g  transform='translate(0.0,23.5)'><text x='96.0' style='text-anchor: middle' y='-2.0'><tspan xml:space='preserve' font-size='12' font-family='Arial' fill='#000000' >GET /resource/1.html</tspan></text></g></g><g transform='translate(618.5,196.5) rotate(0 97.5 11.5)'><g  transform='translate(0.0,16.5)'><text x='97.5' style='text-anchor: middle' y='-2.0'><tspan xml:space='preserve' font-size='12' font-family='Arial' fill='#000000' >200 - Content-Type: text/html</tspan></text></g></g><g transform='translate(631.0,246.0) rotate(0 86.0 10.0)'><g  transform='translate(0.0,15.0)'><text x='86.0' style='text-anchor: middle' y='-2.0'><tspan xml:space='preserve' font-size='12' font-family='Arial' fill='#000000' >My content</tspan></text></g></g><defs>    <ellipse cx="9.315" cy="80.208" id="SVGIDserver_web_3_" rx="2.167" ry="3.679" transform="matrix(0.8561 -0.5167 0.5167 0.8561 -40.1069 16.3526)"/>    <clipPath id="SVGIDserver_web_4_">        <use overflow="visible" xlink:actuate="onLoad" xlink:href="#SVGIDserver_web_3_" xlink:show="embed" xlink:type="simple" xmlns:xlink="http://www.w3.org/1999/xlink"/>    </clipPath>    <linearGradient gradientUnits="userSpaceOnUse" id="SVGIDserver_web_1_" x1="10.5635" x2="50.738" xlink:actuate="onLoad" xlink:show="other" xlink:type="simple" xmlns:xlink="http://www.w3.org/1999/xlink" y1="31.0234" y2="7.2703">		<stop offset="0" style="stop-color:#464646"/>		<stop offset="1" style="stop-color:#CCCCCC"/>		<a:midPointStop offset="0" style="stop-color:#464646"/>		<a:midPointStop offset="0.5" style="stop-color:#464646"/>		<a:midPointStop offset="1" style="stop-color:#CCCCCC"/>	</linearGradient><linearGradient gradientUnits="userSpaceOnUse" id="SVGIDserver_web_2_" x1="23.0298" x2="56.8667" xlink:actuate="onLoad" xlink:show="other" xlink:type="simple" xmlns:xlink="http://www.w3.org/1999/xlink" y1="69.2744" y2="49.2683">		<stop offset="0" style="stop-color:#353535"/>		<stop offset="1" style="stop-color:#949494"/>		<a:midPointStop offset="0" style="stop-color:#353535"/>		<a:midPointStop offset="0.5" style="stop-color:#353535"/>		<a:midPointStop offset="1" style="stop-color:#949494"/>	</linearGradient><linearGradient gradientUnits="userSpaceOnUse" id="SVGIDserver_web_5_" x1="0" x2="26.3257" xlink:actuate="onLoad" xlink:show="other" xlink:type="simple" xmlns:xlink="http://www.w3.org/1999/xlink" y1="60.834" y2="60.834">		<stop offset="0" style="stop-color:#565656"/>		<stop offset="0.1023" style="stop-color:#696969"/>		<stop offset="0.2979" style="stop-color:#868686"/>		<stop offset="0.4908" style="stop-color:#9C9C9C"/>		<stop offset="0.6779" style="stop-color:#A9A9A9"/>		<stop offset="0.8528" style="stop-color:#ADADAD"/>		<stop offset="1" style="stop-color:#535353"/>		<a:midPointStop offset="0" style="stop-color:#565656"/>		<a:midPointStop offset="0.3067" style="stop-color:#565656"/>		<a:midPointStop offset="0.8528" style="stop-color:#ADADAD"/>		<a:midPointStop offset="0.5" style="stop-color:#ADADAD"/>		<a:midPointStop offset="1" style="stop-color:#535353"/>	</linearGradient><symbol id="com.gliffy.newnetwork.business.Server_Web" viewBox="0 0 64 100" preserveAspectRatio="none"><g id="Layer_0">	<rect fill="none" height="100" width="64"/>	<path d="M26.326,69.194V35.72c-5.584,3.229-26.147-7.938-26.325-12.999C0,22.71,0,22.681,0,22.658v62.89h0.021   c0.462,5.109,20.761,16.092,26.305,12.886V69.194z"/></g><g id="Layer_1">	<rect fill="none" height="100" width="64"/>		<path d="M64,14.038c0,0-33.514,19.276-37.674,21.682C20.899,38.857,0,29.346,0,22.658   C4.341,20.148,39.186,0,39.186,0L64,14.038z" fill="url(#SVGIDserver_web_1_)"/>		<polygon fill="url(#SVGIDserver_web_2_)" points="26.229,98.494 64,76.657 64,14.038 26.326,35.72  "/>	<g>		<g>			<rect clip-path="url(#SVGIDserver_web_4_)" fill="#C4C6C8" height="7.538" width="5.845" x="6.393" y="76.438"/>			<path clip-path="url(#SVGIDserver_web_4_)" d="M11.583,78.842c0.908,1.506,0.63,3.341-0.622,4.099     c-1.252,0.758-3.004,0.147-3.912-1.363c-0.908-1.507-0.631-3.342,0.622-4.1C8.923,76.72,10.675,77.33,11.583,78.842z" fill="#C4C6C8"/>			<path clip-path="url(#SVGIDserver_web_4_)" d="M11.545,78.861c0.895,1.486,0.618,3.288-0.613,4.032     C9.7,83.64,7.977,83.037,7.087,81.556C6.191,80.07,6.469,78.27,7.7,77.523C8.931,76.779,10.654,77.381,11.545,78.861z" fill="#C5C7C9"/>			<path clip-path="url(#SVGIDserver_web_4_)" d="M11.507,78.883c0.878,1.461,0.609,3.232-0.601,3.965     c-1.21,0.732-2.904,0.143-3.782-1.313c-0.878-1.46-0.605-3.231,0.605-3.964S10.629,77.427,11.507,78.883z" fill="#C6C8CA"/>			<path clip-path="url(#SVGIDserver_web_4_)" d="M11.469,78.908c0.862,1.431,0.597,3.173-0.592,3.894     c-1.189,0.72-2.853,0.139-3.715-1.293c-0.861-1.431-0.597-3.173,0.593-3.893C8.944,76.897,10.608,77.478,11.469,78.908z" fill="#C7C9CB"/>							<ellipse clip-path="url(#SVGIDserver_web_4_)" cx="9.316" cy="80.209" fill="#C8CACC" rx="2.471" ry="2.972" transform="matrix(0.8565 -0.5162 0.5162 0.8565 -40.0686 16.3227)"/>			<path clip-path="url(#SVGIDserver_web_4_)" d="M11.394,78.955c0.828,1.38,0.571,3.063-0.572,3.754     c-1.147,0.694-2.752,0.135-3.58-1.246c-0.833-1.38-0.581-3.063,0.567-3.754C8.957,77.015,10.562,77.575,11.394,78.955z" fill="#C9CBCD"/>			<path clip-path="url(#SVGIDserver_web_4_)" d="M11.352,78.979c0.815,1.355,0.567,3.005-0.559,3.684     c-1.126,0.682-2.698,0.134-3.513-1.226c-0.819-1.354-0.567-3.005,0.559-3.682C8.965,77.074,10.537,77.62,11.352,78.979z" fill="#CACCCE"/>			<path clip-path="url(#SVGIDserver_web_4_)" d="M11.314,79.001c0.803,1.33,0.555,2.95-0.551,3.615     c-1.101,0.669-2.647,0.131-3.446-1.199c-0.802-1.33-0.555-2.95,0.551-3.615C8.969,77.132,10.515,77.672,11.314,79.001z" fill="#CBCDCF"/>			<path clip-path="url(#SVGIDserver_web_4_)" d="M11.276,79.026c0.786,1.305,0.546,2.892-0.538,3.543     c-1.084,0.657-2.597,0.127-3.383-1.178C6.57,80.087,6.813,78.5,7.894,77.848C8.978,77.191,10.49,77.722,11.276,79.026z" fill="#CCCED0"/>			<path clip-path="url(#SVGIDserver_web_4_)" d="M11.239,79.048c0.769,1.278,0.533,2.837-0.53,3.476     c-1.063,0.644-2.547,0.127-3.315-1.152c-0.769-1.28-0.534-2.837,0.529-3.478C8.981,77.25,10.47,77.769,11.239,79.048z" fill="#CDCFD1"/>			<path clip-path="url(#SVGIDserver_web_4_)" d="M11.2,79.072c0.752,1.25,0.521,2.778-0.521,3.404     c-1.038,0.632-2.492,0.123-3.249-1.131c-0.752-1.25-0.521-2.778,0.517-3.405C8.99,77.309,10.444,77.818,11.2,79.072z" fill="#CED0D1"/>			<path clip-path="url(#SVGIDserver_web_4_)" d="M11.163,79.094c0.735,1.229,0.508,2.723-0.508,3.338     c-1.021,0.614-2.446,0.122-3.185-1.107c-0.74-1.229-0.509-2.723,0.508-3.338C8.999,77.373,10.423,77.865,11.163,79.094z" fill="#CFD1D2"/>			<path clip-path="url(#SVGIDserver_web_4_)" d="M11.125,79.119c0.723,1.199,0.5,2.664-0.5,3.266     c-0.997,0.602-2.392,0.118-3.114-1.086c-0.727-1.199-0.504-2.664,0.496-3.266C9.002,77.432,10.398,77.915,11.125,79.119z" fill="#D0D2D3"/>			<path clip-path="url(#SVGIDserver_web_4_)" d="M11.083,79.141c0.709,1.178,0.491,2.608-0.484,3.198     c-0.979,0.589-2.344,0.113-3.05-1.061c-0.71-1.179-0.492-2.61,0.483-3.199C9.011,77.49,10.377,77.966,11.083,79.141z" fill="#D1D3D4"/>							<ellipse clip-path="url(#SVGIDserver_web_4_)" cx="9.316" cy="80.209" fill="#D2D4D5" rx="2.02" ry="2.431" transform="matrix(0.8561 -0.5169 0.5169 0.8561 -40.1172 16.3604)"/>			<path clip-path="url(#SVGIDserver_web_4_)" d="M11.007,79.187c0.676,1.128,0.471,2.496-0.466,3.06     c-0.933,0.563-2.24,0.109-2.917-1.015c-0.677-1.128-0.471-2.495,0.466-3.059C9.024,77.607,10.331,78.062,11.007,79.187z" fill="#D3D5D6"/>			<path clip-path="url(#SVGIDserver_web_4_)" d="M10.969,79.212c0.66,1.099,0.458,2.437-0.454,2.987     c-0.912,0.552-2.189,0.109-2.853-0.993c-0.66-1.098-0.458-2.437,0.454-2.988C9.032,77.667,10.306,78.108,10.969,79.212z" fill="#D4D6D7"/>			<path clip-path="url(#SVGIDserver_web_4_)" d="M10.932,79.232c0.647,1.073,0.445,2.382-0.445,2.921     c-0.891,0.538-2.139,0.105-2.786-0.968s-0.446-2.383,0.445-2.921C9.036,77.726,10.284,78.16,10.932,79.232z" fill="#D5D7D8"/>							<ellipse clip-path="url(#SVGIDserver_web_4_)" cx="9.316" cy="80.209" fill="#D6D8D9" rx="1.842" ry="2.214" transform="matrix(0.8564 -0.5163 0.5163 0.8564 -40.0718 16.3255)"/>			<path clip-path="url(#SVGIDserver_web_4_)" d="M10.855,79.278c0.614,1.027,0.425,2.269-0.424,2.783     c-0.849,0.513-2.038,0.101-2.652-0.923c-0.618-1.026-0.429-2.269,0.42-2.781C9.049,77.844,10.238,78.257,10.855,79.278z" fill="#D7D9DA"/>			<path clip-path="url(#SVGIDserver_web_4_)" d="M10.813,79.304c0.601,0.998,0.416,2.21-0.412,2.711     c-0.828,0.501-1.983,0.097-2.584-0.901c-0.6-0.996-0.416-2.209,0.412-2.71S10.213,78.307,10.813,79.304z" fill="#D8DADB"/>			<path clip-path="url(#SVGIDserver_web_4_)" d="M10.776,79.33c0.584,0.968,0.407,2.15-0.399,2.639s-1.937,0.097-2.521-0.88     c-0.583-0.968-0.404-2.15,0.403-2.639S10.192,78.354,10.776,79.33z" fill="#D9DBDC"/>							<ellipse clip-path="url(#SVGIDserver_web_4_)" cx="9.316" cy="80.208" fill="#DADCDD" rx="1.662" ry="2" transform="matrix(0.8561 -0.5168 0.5168 0.8561 -40.1149 16.3589)"/>			<path clip-path="url(#SVGIDserver_web_4_)" d="M10.7,79.371c0.555,0.922,0.383,2.046-0.382,2.505     c-0.764,0.463-1.832,0.088-2.387-0.83c-0.555-0.921-0.382-2.045,0.383-2.503C9.079,78.079,10.146,78.454,10.7,79.371z" fill="#DBDDDE"/>			<path clip-path="url(#SVGIDserver_web_4_)" d="M10.663,79.396c0.538,0.893,0.37,1.987-0.37,2.433     c-0.743,0.45-1.781,0.089-2.323-0.809c-0.538-0.892-0.374-1.985,0.37-2.432C9.083,78.139,10.125,78.5,10.663,79.396z" fill="#DCDEDF"/>			<path clip-path="url(#SVGIDserver_web_4_)" d="M10.621,79.422c0.525,0.867,0.366,1.928-0.357,2.361     c-0.723,0.438-1.731,0.084-2.256-0.787c-0.521-0.867-0.361-1.928,0.362-2.361C9.091,78.197,10.099,78.551,10.621,79.422z" fill="#DDDFE0"/>			<path clip-path="url(#SVGIDserver_web_4_)" d="M10.583,79.443c0.508,0.846,0.353,1.872-0.349,2.293     c-0.697,0.422-1.681,0.084-2.185-0.761c-0.508-0.847-0.353-1.873,0.349-2.295C9.095,78.261,10.074,78.597,10.583,79.443z" fill="#DEE0E1"/>			<path clip-path="url(#SVGIDserver_web_4_)" d="M10.544,79.464c0.496,0.821,0.341,1.818-0.335,2.226     c-0.681,0.409-1.63,0.081-2.122-0.735c-0.492-0.821-0.341-1.818,0.336-2.227C9.104,78.319,10.054,78.647,10.544,79.464z" fill="#DFE1E2"/>							<ellipse clip-path="url(#SVGIDserver_web_4_)" cx="9.316" cy="80.209" fill="#E0E2E3" rx="1.392" ry="1.675" transform="matrix(0.8559 -0.5171 0.5171 0.8559 -40.1318 16.3718)"/>			<path clip-path="url(#SVGIDserver_web_4_)" d="M10.47,79.515c0.462,0.766,0.319,1.7-0.32,2.083     c-0.635,0.384-1.525,0.076-1.988-0.693C7.7,80.137,7.843,79.203,8.477,78.82C9.116,78.438,10.007,78.745,10.47,79.515z" fill="#E2E3E4"/>							<ellipse clip-path="url(#SVGIDserver_web_4_)" cx="9.316" cy="80.209" fill="#E3E3E4" rx="1.303" ry="1.567" transform="matrix(0.8562 -0.5167 0.5167 0.8562 -40.1042 16.3502)"/>			<path clip-path="url(#SVGIDserver_web_4_)" d="M10.394,79.557c0.428,0.72,0.298,1.591-0.299,1.948     c-0.593,0.358-1.424,0.072-1.857-0.644c-0.429-0.72-0.299-1.591,0.298-1.948C9.128,78.556,9.961,78.842,10.394,79.557z" fill="#E4E4E5"/>			<path clip-path="url(#SVGIDserver_web_4_)" d="M10.352,79.582c0.417,0.69,0.29,1.531-0.282,1.877     c-0.575,0.345-1.378,0.067-1.794-0.623c-0.412-0.69-0.286-1.532,0.286-1.877C9.137,78.614,9.94,78.892,10.352,79.582z" fill="#E5E5E6"/>			<path clip-path="url(#SVGIDserver_web_4_)" d="M10.313,79.607c0.404,0.665,0.278,1.473-0.273,1.805     c-0.55,0.333-1.324,0.063-1.723-0.602c-0.403-0.665-0.277-1.473,0.273-1.806C9.142,78.673,9.915,78.942,10.313,79.607z" fill="#E6E6E7"/>							<ellipse clip-path="url(#SVGIDserver_web_4_)" cx="9.316" cy="80.209" fill="#E7E7E8" rx="1.122" ry="1.35" transform="matrix(0.8557 -0.5174 0.5174 0.8557 -40.1569 16.3909)"/>			<path clip-path="url(#SVGIDserver_web_4_)" d="M10.238,79.648c0.37,0.615,0.256,1.364-0.252,1.671     c-0.513,0.308-1.223,0.06-1.593-0.551c-0.37-0.614-0.257-1.363,0.252-1.671C9.158,78.79,9.869,79.039,10.238,79.648z" fill="#E8E8E9"/>							<ellipse clip-path="url(#SVGIDserver_web_4_)" cx="9.316" cy="80.209" fill="#E9E9EA" rx="1.033" ry="1.243" transform="matrix(0.856 -0.517 0.517 0.856 -40.1235 16.3652)"/>			<path clip-path="url(#SVGIDserver_web_4_)" d="M10.163,79.7c0.336,0.56,0.236,1.245-0.235,1.527     c-0.467,0.281-1.118,0.055-1.458-0.51c-0.336-0.56-0.236-1.245,0.235-1.527C9.171,78.908,9.822,79.136,10.163,79.7z" fill="#EAEAEB"/>			<path clip-path="url(#SVGIDserver_web_4_)" d="M10.125,79.721c0.319,0.539,0.222,1.19-0.223,1.461     c-0.445,0.269-1.071,0.05-1.395-0.484c-0.323-0.539-0.223-1.191,0.222-1.46C9.175,78.967,9.801,79.187,10.125,79.721z" fill="#EBEBEC"/>							<ellipse clip-path="url(#SVGIDserver_web_4_)" cx="9.314" cy="80.209" fill="#ECECED" rx="0.898" ry="1.081" transform="matrix(0.8568 -0.5156 0.5156 0.8568 -40.0204 16.2843)"/>			<path clip-path="url(#SVGIDserver_web_4_)" d="M10.044,79.767c0.295,0.488,0.207,1.078-0.197,1.322     c-0.403,0.243-0.971,0.046-1.261-0.438c-0.294-0.488-0.201-1.077,0.202-1.32C9.192,79.085,9.755,79.283,10.044,79.767z" fill="#EDEDEE"/>			<path clip-path="url(#SVGIDserver_web_4_)" d="M10.007,79.792c0.277,0.459,0.193,1.019-0.189,1.25     c-0.382,0.232-0.916,0.047-1.193-0.417c-0.277-0.458-0.193-1.018,0.189-1.25C9.196,79.145,9.729,79.33,10.007,79.792z" fill="#EEEEEF"/>							<ellipse clip-path="url(#SVGIDserver_web_4_)" cx="9.316" cy="80.209" fill="#EFEFF0" rx="0.764" ry="0.918" transform="matrix(0.8555 -0.5177 0.5177 0.8555 -40.1813 16.41)"/>			<path clip-path="url(#SVGIDserver_web_4_)" d="M9.932,79.838c0.244,0.408,0.167,0.905-0.168,1.111     c-0.34,0.207-0.815,0.039-1.063-0.37c-0.248-0.408-0.172-0.904,0.168-1.111C9.209,79.262,9.684,79.431,9.932,79.838z" fill="#F0F0F1"/>			<path clip-path="url(#SVGIDserver_web_4_)" d="M9.894,79.859c0.231,0.387,0.16,0.851-0.16,1.045     c-0.32,0.193-0.765,0.037-0.996-0.346c-0.231-0.388-0.16-0.851,0.16-1.044C9.217,79.321,9.663,79.477,9.894,79.859z" fill="#F1F1F2"/>			<path clip-path="url(#SVGIDserver_web_4_)" d="M9.856,79.885c0.214,0.357,0.147,0.791-0.151,0.973     c-0.294,0.181-0.71,0.033-0.929-0.325c-0.214-0.357-0.147-0.791,0.151-0.972C9.221,79.38,9.637,79.527,9.856,79.885z" fill="#F2F2F3"/>			<path clip-path="url(#SVGIDserver_web_4_)" d="M9.813,79.906c0.202,0.332,0.139,0.736-0.134,0.904     c-0.278,0.169-0.665,0.034-0.862-0.298c-0.202-0.333-0.139-0.737,0.134-0.905C9.229,79.439,9.616,79.573,9.813,79.906z" fill="#F3F3F4"/>							<ellipse clip-path="url(#SVGIDserver_web_4_)" cx="9.316" cy="80.209" fill="#F4F4F5" rx="0.538" ry="0.648" transform="matrix(0.8561 -0.5168 0.5168 0.8561 -40.1141 16.3578)"/>			<path clip-path="url(#SVGIDserver_web_4_)" d="M9.738,79.952c0.168,0.281,0.118,0.623-0.118,0.766     c-0.231,0.144-0.559,0.025-0.727-0.252c-0.168-0.282-0.118-0.623,0.113-0.766C9.243,79.557,9.57,79.675,9.738,79.952z" fill="#F5F5F6"/>			<path clip-path="url(#SVGIDserver_web_4_)" d="M9.7,79.978c0.156,0.252,0.106,0.563-0.104,0.694     c-0.214,0.131-0.508,0.025-0.664-0.231c-0.155-0.252-0.105-0.564,0.105-0.694C9.25,79.616,9.544,79.721,9.7,79.978z" fill="#F6F6F6"/>							<ellipse clip-path="url(#SVGIDserver_web_4_)" cx="9.316" cy="80.209" fill="#F7F7F7" rx="0.406" ry="0.485" transform="matrix(0.8548 -0.5189 0.5189 0.8548 -40.2695 16.4785)"/>			<path clip-path="url(#SVGIDserver_web_4_)" d="M9.625,80.024c0.122,0.205,0.084,0.454-0.088,0.555     c-0.168,0.105-0.404,0.021-0.53-0.185c-0.122-0.206-0.083-0.455,0.084-0.557C9.263,79.733,9.499,79.818,9.625,80.024z" fill="#F8F8F8"/>			<path clip-path="url(#SVGIDserver_web_4_)" d="M9.587,80.045c0.105,0.181,0.071,0.399-0.076,0.487     c-0.151,0.089-0.357,0.018-0.462-0.159c-0.109-0.181-0.076-0.399,0.071-0.488C9.268,79.797,9.478,79.868,9.587,80.045z" fill="#F9F9F9"/>							<ellipse clip-path="url(#SVGIDserver_web_4_)" cx="9.316" cy="80.209" fill="#FAFAFA" rx="0.268" ry="0.324" transform="matrix(0.8551 -0.5184 0.5184 0.8551 -40.2296 16.4475)"/>			<path clip-path="url(#SVGIDserver_web_4_)" d="M9.507,80.096c0.08,0.126,0.055,0.281-0.05,0.345     c-0.109,0.063-0.257,0.013-0.332-0.118c-0.075-0.126-0.055-0.282,0.051-0.345C9.285,79.915,9.431,79.965,9.507,80.096z" fill="#FBFBFB"/>							<ellipse clip-path="url(#SVGIDserver_web_4_)" cx="9.316" cy="80.209" fill="#FCFCFC" rx="0.179" ry="0.216" transform="matrix(0.8571 -0.5151 0.5151 0.8571 -39.9847 16.2578)"/>			<path clip-path="url(#SVGIDserver_web_4_)" d="M9.431,80.137c0.046,0.081,0.03,0.174-0.033,0.211     C9.335,80.386,9.247,80.356,9.2,80.28c-0.045-0.079-0.033-0.172,0.034-0.21C9.297,80.031,9.385,80.062,9.431,80.137z" fill="#FDFDFD"/>							<ellipse clip-path="url(#SVGIDserver_web_4_)" cx="9.316" cy="80.208" fill="#FEFEFE" rx="0.09" ry="0.109" transform="matrix(0.8584 -0.5129 0.5129 0.8584 -39.8208 16.1322)"/>			<path clip-path="url(#SVGIDserver_web_4_)" d="M9.356,80.188c0.013,0.025,0.008,0.054-0.013,0.066     c-0.021,0.013-0.05,0-0.067-0.025c-0.013-0.024-0.008-0.055,0.012-0.067C9.31,80.149,9.339,80.162,9.356,80.188z" fill="#FFFFFF"/>		</g>	</g>		<path d="M1.379,61.171c-0.021-1.413,0-0.951,0-2.907c0.652,1.625,17.672,13.615,24.946,10.331v-9.126   c-8.189,2.862-24.051-8.798-24.946-10.21c-0.021-1.412,0-0.95,0-2.906c0.652,1.625,17.672,13.615,24.946,10.331v-9.126   c-8.189,2.862-24.051-8.799-24.946-10.21c-0.021-1.412,0-0.95,0-2.906c0.652,1.625,17.672,13.615,24.946,10.33V35.72   c-5.584,3.229-26.147-7.938-26.325-12.999C0,22.71,0,22.681,0,22.658v62.89h0.021c0.462,5.109,20.761,16.092,26.305,12.886V71.38   C18.137,74.242,2.275,62.582,1.379,61.171z M9.244,84.817c-2.15-1.243-3.881-4.246-3.875-6.713c0.007-2.473,1.75-3.468,3.9-2.226   c2.142,1.238,3.874,4.244,3.866,6.716C13.129,85.062,11.386,86.057,9.244,84.817z" fill="url(#SVGIDserver_web_5_)"/>	<g>		<path d="M56.471,42.069c5.342,3.053,5.402,13.028,0.132,22.281c-5.27,9.257-13.873,14.287-19.215,11.235    c-5.343-3.053-5.401-13.028-0.131-22.282C42.526,44.048,51.127,39.018,56.471,42.069z" fill="#CCCCCC"/>		<path d="M37.911,51.756l1.045,0.319l-0.279,1.616l-0.06,1.058l-0.707,2.515l0.522,1.987l0.431,1.784l0.581,0.996    l0.189-1.203l0.831,0.851l0.404,0.415l1.735,0.331l0.998,0.266l3.012-0.523l0.594,0.728l0.942-0.489l1.27-0.205v1.156    l-0.969,1.471l0.076,1.404l1.13,1.73l1.087-0.02l0.27,0.638l-1.243,4.07c0,0,2.274-2.021,3.168-3.105    c0.895-1.085,2.345-4.477,2.345-4.477l1.581-3.177l0.429-1.24l0.487-1.823l0.493-1.652l-1.193,0.512l-1.001-0.519l-2.115,0.328    l-0.419-0.596l-2.506,2.315l-1.398,1.592l-0.891,0.128c0,0-2.289,0.701-2.226,0.51c0.064-0.191-0.492-1.665-0.492-1.665    l-0.78-0.056l-0.509,0.766l-0.89,0.573l-0.646-1.883l0.469-1.197l2.776-1.943l0.202,0.528l1.439,0.227l-0.297-1.948l-0.04-0.727    l0.731-0.858l0.007-1.188l1.273-3.164l0.371-0.049l0.725-1.256l-1.08-0.289l1.652-1.705h-2.475l-1.219-0.161l0.116-0.479h-0.832    l1.469-0.551h1.882l-0.156-1.235l-2.13-0.781C48.093,42.404,44.127,43.616,37.911,51.756z" fill="#808080"/>	</g></g></symbol></defs><g transform='translate(810.6,456.0) rotate(0 38.4 60.0)'><use xlink:href='#com.gliffy.newnetwork.business.Server_Web' width='76.8' height='120.0'  fill="#003366"/><g ></g></g><defs>    <path d="M11.396,79.492c1.049,1.759,1.067,3.689,0.043,4.313c-1.023,0.628-2.705-0.294-3.754-2.053      c-1.043-1.758-1.065-3.689-0.042-4.312C8.67,76.817,10.347,77.734,11.396,79.492z" id="SVGIDserver_proxy_3_"/>    <clipPath id="SVGIDserver_proxy_4_">        <use overflow="visible" xlink:actuate="onLoad" xlink:href="#SVGIDserver_proxy_3_" xlink:show="embed" xlink:type="simple" xmlns:xlink="http://www.w3.org/1999/xlink"/>    </clipPath>    <linearGradient gradientUnits="userSpaceOnUse" id="SVGIDserver_proxy_1_" x1="10.5391" x2="50.7506" xlink:actuate="onLoad" xlink:show="other" xlink:type="simple" xmlns:xlink="http://www.w3.org/1999/xlink" y1="31.2197" y2="7.4446">		<stop offset="0" style="stop-color:#464646"/>		<stop offset="1" style="stop-color:#CCCCCC"/>		<a:midPointStop offset="0" style="stop-color:#464646"/>		<a:midPointStop offset="0.5" style="stop-color:#464646"/>		<a:midPointStop offset="1" style="stop-color:#CCCCCC"/>	</linearGradient><linearGradient gradientUnits="userSpaceOnUse" id="SVGIDserver_proxy_2_" x1="22.9014" x2="56.9326" xlink:actuate="onLoad" xlink:show="other" xlink:type="simple" xmlns:xlink="http://www.w3.org/1999/xlink" y1="69.9111" y2="49.7902">		<stop offset="0" style="stop-color:#353535"/>		<stop offset="1" style="stop-color:#949494"/>		<a:midPointStop offset="0" style="stop-color:#353535"/>		<a:midPointStop offset="0.5" style="stop-color:#353535"/>		<a:midPointStop offset="1" style="stop-color:#949494"/>	</linearGradient><linearGradient gradientUnits="userSpaceOnUse" id="SVGIDserver_proxy_5_" x1="0" x2="26.3237" xlink:actuate="onLoad" xlink:show="other" xlink:type="simple" xmlns:xlink="http://www.w3.org/1999/xlink" y1="61.4414" y2="61.4414">		<stop offset="0" style="stop-color:#565656"/>		<stop offset="0.1023" style="stop-color:#696969"/>		<stop offset="0.2979" style="stop-color:#868686"/>		<stop offset="0.4908" style="stop-color:#9C9C9C"/>		<stop offset="0.6779" style="stop-color:#A9A9A9"/>		<stop offset="0.8528" style="stop-color:#ADADAD"/>		<stop offset="1" style="stop-color:#535353"/>		<a:midPointStop offset="0" style="stop-color:#565656"/>		<a:midPointStop offset="0.3067" style="stop-color:#565656"/>		<a:midPointStop offset="0.8528" style="stop-color:#ADADAD"/>		<a:midPointStop offset="0.5" style="stop-color:#ADADAD"/>		<a:midPointStop offset="1" style="stop-color:#535353"/>	</linearGradient><symbol id="com.gliffy.newnetwork.business.Server_Proxy" viewBox="0 0 64 100" preserveAspectRatio="none"><g id="Layer_0">	<rect fill="none" height="100" width="64"/>	<path d="M26.324,69.891V36.074c-5.581,3.268-26.145-8.016-26.323-13.125c0-0.01,0-0.038-0.001-0.066v63.523h0.019   c0.464,5.161,20.765,16.25,26.305,13.012V69.891z"/></g><g id="Layer_1">	<rect fill="none" height="100" width="64"/>		<path d="M64,14.178c0,0-33.512,19.475-37.676,21.896C20.899,39.248,0,29.636,0,22.883   C4.341,20.348,39.187,0.001,39.187,0.001L64,14.178z" fill="url(#SVGIDserver_proxy_1_)"/>		<polygon fill="url(#SVGIDserver_proxy_2_)" points="26.227,99.482 64,77.426 64,14.178 26.324,36.074  "/>	<g>		<g>			<rect clip-path="url(#SVGIDserver_proxy_4_)" fill="#C4C6C8" height="7.613" width="5.845" x="6.618" y="76.818"/>			<path clip-path="url(#SVGIDserver_proxy_4_)" d="M11.81,79.239c0.905,1.525,0.63,3.379-0.622,4.145     c-1.253,0.767-3.003,0.146-3.912-1.376c-0.908-1.525-0.63-3.379,0.623-4.145C9.15,77.097,10.901,77.718,11.81,79.239z" fill="#C4C6C8"/>			<path clip-path="url(#SVGIDserver_proxy_4_)" d="M11.771,79.267c0.893,1.498,0.619,3.32-0.615,4.066     c-1.229,0.755-2.953,0.148-3.846-1.345c-0.893-1.506-0.615-3.32,0.615-4.074C9.158,77.159,10.878,77.765,11.771,79.267z" fill="#C5C7C9"/>			<path clip-path="url(#SVGIDserver_proxy_4_)" d="M11.732,79.286c0.878,1.475,0.611,3.261-0.599,4.004     c-1.21,0.735-2.907,0.141-3.785-1.329c-0.877-1.475-0.603-3.262,0.607-4.004C9.166,77.222,10.854,77.815,11.732,79.286z" fill="#C6C8CA"/>			<path clip-path="url(#SVGIDserver_proxy_4_)" d="M11.693,79.31c0.862,1.447,0.599,3.206-0.591,3.93     c-1.19,0.731-2.853,0.145-3.715-1.302c-0.862-1.447-0.595-3.207,0.591-3.93C9.169,77.276,10.832,77.863,11.693,79.31z" fill="#C7C9CB"/>			<path clip-path="url(#SVGIDserver_proxy_4_)" d="M11.655,79.333c0.846,1.424,0.587,3.151-0.584,3.863     c-1.167,0.712-2.798,0.133-3.645-1.282C6.58,80.49,6.842,78.77,8.009,78.051C9.177,77.339,10.809,77.918,11.655,79.333z" fill="#C8CACC"/>			<path clip-path="url(#SVGIDserver_proxy_4_)" d="M11.62,79.36c0.827,1.393,0.572,3.089-0.572,3.785     c-1.148,0.708-2.753,0.141-3.58-1.251c-0.835-1.4-0.58-3.097,0.564-3.793C9.181,77.401,10.785,77.961,11.62,79.36z" fill="#C9CBCD"/>			<path clip-path="url(#SVGIDserver_proxy_4_)" d="M11.578,79.384c0.816,1.369,0.568,3.034-0.56,3.719     c-1.125,0.688-2.699,0.133-3.514-1.239c-0.82-1.369-0.564-3.034,0.56-3.719C9.189,77.456,10.762,78.012,11.578,79.384z" fill="#CACCCE"/>			<path clip-path="url(#SVGIDserver_proxy_4_)" d="M11.539,79.403c0.804,1.346,0.557,2.983-0.549,3.648     c-1.102,0.677-2.648,0.137-3.449-1.208c-0.8-1.346-0.552-2.976,0.553-3.648C9.193,77.519,10.743,78.059,11.539,79.403z" fill="#CBCDCF"/>			<path clip-path="url(#SVGIDserver_proxy_4_)" d="M11.5,79.427c0.788,1.322,0.549,2.921-0.537,3.582     c-1.083,0.665-2.598,0.125-3.383-1.188c-0.785-1.322-0.542-2.921,0.537-3.582C9.205,77.573,10.716,78.113,11.5,79.427z" fill="#CCCED0"/>			<path clip-path="url(#SVGIDserver_proxy_4_)" d="M11.462,79.454c0.769,1.291,0.537,2.862-0.526,3.512     c-1.067,0.646-2.548,0.125-3.317-1.165c-0.769-1.299-0.533-2.87,0.53-3.512C9.208,77.636,10.696,78.156,11.462,79.454z" fill="#CDCFD1"/>			<path clip-path="url(#SVGIDserver_proxy_4_)" d="M11.427,79.478c0.75,1.264,0.521,2.808-0.522,3.438     c-1.04,0.642-2.493,0.121-3.247-1.146c-0.753-1.264-0.522-2.8,0.515-3.438C9.216,77.698,10.669,78.211,11.427,79.478z" fill="#CED0D1"/>			<path clip-path="url(#SVGIDserver_proxy_4_)" d="M11.388,79.497c0.735,1.244,0.507,2.749-0.51,3.375     c-1.021,0.617-2.443,0.121-3.185-1.122c-0.738-1.244-0.507-2.749,0.511-3.367C9.224,77.757,10.65,78.254,11.388,79.497z" fill="#CFD1D2"/>			<path clip-path="url(#SVGIDserver_proxy_4_)" d="M11.35,79.521c0.723,1.217,0.499,2.694-0.499,3.301     c-0.997,0.605-2.393,0.117-3.115-1.095c-0.728-1.217-0.503-2.694,0.498-3.301C9.228,77.819,10.623,78.309,11.35,79.521z" fill="#D0D2D3"/>			<path clip-path="url(#SVGIDserver_proxy_4_)" d="M11.307,79.548c0.711,1.189,0.491,2.636-0.483,3.23     c-0.978,0.594-2.343,0.113-3.05-1.071c-0.711-1.197-0.491-2.636,0.483-3.23C9.235,77.875,10.604,78.355,11.307,79.548z" fill="#D1D3D4"/>			<path clip-path="url(#SVGIDserver_proxy_4_)" d="M11.269,79.571c0.696,1.162,0.479,2.573-0.472,3.156     c-0.955,0.582-2.292,0.113-2.984-1.052c-0.696-1.162-0.479-2.573,0.476-3.156C9.239,77.938,10.577,78.406,11.269,79.571z" fill="#D2D4D5"/>			<path clip-path="url(#SVGIDserver_proxy_4_)" d="M11.233,79.591c0.677,1.143,0.468,2.522-0.467,3.094     c-0.932,0.562-2.238,0.109-2.915-1.028c-0.676-1.143-0.472-2.522,0.464-3.086C9.25,78,10.558,78.453,11.233,79.591z" fill="#D3D5D6"/>			<path clip-path="url(#SVGIDserver_proxy_4_)" d="M11.195,79.614c0.661,1.115,0.457,2.46-0.452,3.02     c-0.912,0.559-2.192,0.109-2.857-1.001c-0.657-1.107-0.456-2.46,0.457-3.02C9.258,78.055,10.53,78.504,11.195,79.614z" fill="#D4D6D7"/>			<path clip-path="url(#SVGIDserver_proxy_4_)" d="M11.156,79.634c0.649,1.092,0.445,2.409-0.444,2.957     c-0.893,0.539-2.138,0.105-2.787-0.978c-0.646-1.084-0.445-2.409,0.444-2.957C9.262,78.117,10.511,78.551,11.156,79.634z" fill="#D5D7D8"/>			<path clip-path="url(#SVGIDserver_proxy_4_)" d="M11.118,79.665c0.63,1.061,0.437,2.347-0.437,2.874     c-0.87,0.536-2.084,0.103-2.718-0.958c-0.63-1.052-0.437-2.346,0.437-2.874C9.27,78.18,10.483,78.605,11.118,79.665z" fill="#D6D8D9"/>			<path clip-path="url(#SVGIDserver_proxy_4_)" d="M11.083,79.685c0.61,1.041,0.421,2.288-0.425,2.812     c-0.851,0.517-2.038,0.103-2.652-0.935c-0.619-1.032-0.43-2.287,0.421-2.812C9.274,78.234,10.464,78.648,11.083,79.685z" fill="#D7D9DA"/>			<path clip-path="url(#SVGIDserver_proxy_4_)" d="M11.041,79.708c0.599,1.014,0.414,2.233-0.414,2.737     C9.8,82.95,8.644,82.543,8.044,81.538c-0.603-1.005-0.417-2.232,0.411-2.736C9.282,78.297,10.437,78.703,11.041,79.708z" fill="#D8DADB"/>			<path clip-path="url(#SVGIDserver_proxy_4_)" d="M11.002,79.732c0.583,0.985,0.405,2.178-0.398,2.67     c-0.808,0.493-1.937,0.098-2.524-0.888c-0.583-0.978-0.402-2.178,0.406-2.67C9.289,78.352,10.417,78.746,11.002,79.732z" fill="#D9DBDC"/>			<path clip-path="url(#SVGIDserver_proxy_4_)" d="M10.963,79.76c0.572,0.958,0.394,2.111-0.391,2.592     c-0.785,0.481-1.886,0.094-2.455-0.864c-0.568-0.95-0.394-2.111,0.391-2.592C9.297,78.414,10.391,78.802,10.963,79.76z" fill="#DADCDD"/>			<path clip-path="url(#SVGIDserver_proxy_4_)" d="M10.924,79.779c0.557,0.927,0.383,2.064-0.383,2.529     c-0.761,0.47-1.832,0.09-2.385-0.841c-0.557-0.927-0.382-2.064,0.383-2.529C9.305,78.477,10.372,78.849,10.924,79.779z" fill="#DBDDDE"/>			<path clip-path="url(#SVGIDserver_proxy_4_)" d="M10.889,79.803c0.538,0.899,0.368,2.01-0.37,2.455     c-0.747,0.458-1.782,0.09-2.324-0.813c-0.538-0.899-0.375-2.01,0.367-2.455C9.309,78.531,10.348,78.899,10.889,79.803z" fill="#DCDEDF"/>			<path clip-path="url(#SVGIDserver_proxy_4_)" d="M10.847,79.826c0.526,0.876,0.364,1.947-0.359,2.389     c-0.723,0.438-1.731,0.086-2.253-0.794c-0.521-0.876-0.363-1.947,0.359-2.389C9.316,78.594,10.325,78.946,10.847,79.826z" fill="#DDDFE0"/>			<path clip-path="url(#SVGIDserver_proxy_4_)" d="M10.809,79.854c0.506,0.849,0.352,1.889-0.348,2.311     c-0.7,0.431-1.681,0.086-2.188-0.763c-0.506-0.856-0.353-1.896,0.351-2.318C9.32,78.652,10.298,78.997,10.809,79.854z" fill="#DEE0E1"/>			<path clip-path="url(#SVGIDserver_proxy_4_)" d="M10.77,79.873c0.494,0.825,0.34,1.838-0.337,2.248     c-0.68,0.41-1.631,0.082-2.122-0.747c-0.491-0.825-0.341-1.838,0.336-2.248C9.328,78.715,10.279,79.044,10.77,79.873z" fill="#DFE1E2"/>			<path clip-path="url(#SVGIDserver_proxy_4_)" d="M10.731,79.896c0.479,0.798,0.333,1.775-0.325,2.174     c-0.661,0.406-1.577,0.078-2.057-0.72c-0.479-0.798-0.332-1.775,0.329-2.174C9.332,78.777,10.255,79.099,10.731,79.896z" fill="#E0E2E3"/>			<path clip-path="url(#SVGIDserver_proxy_4_)" d="M10.696,79.92c0.46,0.774,0.317,1.721-0.321,2.107     c-0.634,0.387-1.527,0.078-1.987-0.7c-0.463-0.774-0.321-1.721,0.313-2.107C9.343,78.833,10.232,79.142,10.696,79.92z" fill="#E2E3E4"/>			<path clip-path="url(#SVGIDserver_proxy_4_)" d="M10.658,79.947c0.444,0.743,0.306,1.662-0.31,2.029     c-0.615,0.375-1.477,0.074-1.921-0.669c-0.449-0.751-0.31-1.662,0.305-2.037C9.351,78.896,10.213,79.196,10.658,79.947z" fill="#E3E3E4"/>			<path clip-path="url(#SVGIDserver_proxy_4_)" d="M10.619,79.967c0.429,0.724,0.297,1.603-0.298,1.967     c-0.591,0.363-1.426,0.074-1.859-0.653c-0.429-0.724-0.297-1.604,0.301-1.967C9.354,78.95,10.186,79.239,10.619,79.967z" fill="#E4E4E5"/>			<path clip-path="url(#SVGIDserver_proxy_4_)" d="M10.577,79.99c0.417,0.696,0.29,1.548-0.283,1.9     c-0.576,0.344-1.376,0.062-1.793-0.634c-0.41-0.696-0.286-1.549,0.286-1.893C9.363,79.013,10.167,79.294,10.577,79.99z" fill="#E5E5E6"/>			<path clip-path="url(#SVGIDserver_proxy_4_)" d="M10.538,80.014c0.405,0.673,0.278,1.493-0.271,1.826     c-0.553,0.332-1.326,0.066-1.725-0.606c-0.402-0.673-0.278-1.485,0.274-1.826C9.367,79.075,10.14,79.341,10.538,80.014z" fill="#E6E6E7"/>			<path clip-path="url(#SVGIDserver_proxy_4_)" d="M10.503,80.041c0.386,0.642,0.267,1.427-0.267,1.756     c-0.529,0.32-1.272,0.059-1.654-0.583c-0.387-0.649-0.271-1.435,0.263-1.756C9.374,79.13,10.121,79.392,10.503,80.041z" fill="#E7E7E8"/>			<path clip-path="url(#SVGIDserver_proxy_4_)" d="M10.464,80.061c0.367,0.618,0.255,1.376-0.251,1.686     c-0.515,0.309-1.226,0.062-1.593-0.56c-0.371-0.618-0.258-1.376,0.251-1.686C9.382,79.192,10.093,79.438,10.464,80.061z" fill="#E8E8E9"/>			<path clip-path="url(#SVGIDserver_proxy_4_)" d="M10.426,80.084c0.352,0.595,0.243,1.321-0.244,1.619     C9.695,82,9.011,81.758,8.655,81.163c-0.352-0.595-0.244-1.313,0.244-1.611C9.386,79.255,10.074,79.489,10.426,80.084z" fill="#E9E9EA"/>			<path clip-path="url(#SVGIDserver_proxy_4_)" d="M10.387,80.107c0.336,0.567,0.236,1.259-0.235,1.545     c-0.464,0.285-1.118,0.059-1.458-0.513c-0.336-0.567-0.236-1.259,0.236-1.545C9.397,79.31,10.047,79.536,10.387,80.107z" fill="#EAEAEB"/>			<path clip-path="url(#SVGIDserver_proxy_4_)" d="M10.348,80.135c0.321,0.54,0.225,1.2-0.22,1.475     c-0.444,0.266-1.071,0.047-1.396-0.489c-0.325-0.548-0.224-1.208,0.225-1.475C9.401,79.372,10.028,79.591,10.348,80.135z" fill="#EBEBEC"/>			<path clip-path="url(#SVGIDserver_proxy_4_)" d="M10.31,80.158c0.31,0.513,0.213,1.146-0.212,1.399     c-0.425,0.263-1.017,0.056-1.326-0.469c-0.31-0.513-0.213-1.138,0.212-1.4C9.409,79.427,10,79.634,10.31,80.158z" fill="#ECECED"/>			<path clip-path="url(#SVGIDserver_proxy_4_)" d="M10.271,80.178c0.293,0.493,0.204,1.087-0.198,1.337     c-0.406,0.243-0.97,0.043-1.26-0.445c-0.298-0.493-0.206-1.087,0.2-1.337C9.417,79.489,9.981,79.688,10.271,80.178z" fill="#EDEDEE"/>			<path clip-path="url(#SVGIDserver_proxy_4_)" d="M10.232,80.201c0.278,0.466,0.193,1.032-0.189,1.263     c-0.383,0.239-0.916,0.051-1.194-0.418c-0.275-0.466-0.193-1.032,0.189-1.263C9.42,79.552,9.954,79.732,10.232,80.201z" fill="#EEEEEF"/>			<path clip-path="url(#SVGIDserver_proxy_4_)" d="M10.194,80.221c0.263,0.441,0.182,0.974-0.182,1.2     c-0.359,0.22-0.861,0.039-1.125-0.395c-0.259-0.442-0.181-0.974,0.181-1.2C9.428,79.606,9.935,79.787,10.194,80.221z" fill="#EFEFF0"/>			<path clip-path="url(#SVGIDserver_proxy_4_)" d="M10.155,80.252c0.243,0.41,0.17,0.911-0.167,1.118     c-0.34,0.207-0.815,0.043-1.063-0.375c-0.247-0.411-0.174-0.911,0.167-1.118C9.432,79.669,9.908,79.842,10.155,80.252z" fill="#F0F0F1"/>			<path clip-path="url(#SVGIDserver_proxy_4_)" d="M10.121,80.271c0.228,0.391,0.158,0.86-0.163,1.056     c-0.316,0.195-0.765,0.035-0.994-0.352c-0.232-0.392-0.162-0.86,0.159-1.056S9.888,79.885,10.121,80.271z" fill="#F1F1F2"/>			<path clip-path="url(#SVGIDserver_proxy_4_)" d="M10.082,80.295c0.212,0.363,0.146,0.798-0.151,0.981     c-0.293,0.184-0.711,0.039-0.932-0.324c-0.212-0.364-0.147-0.798,0.155-0.981C9.447,79.787,9.861,79.939,10.082,80.295z" fill="#F2F2F3"/>			<path clip-path="url(#SVGIDserver_proxy_4_)" d="M10.039,80.314c0.201,0.34,0.14,0.747-0.135,0.919     c-0.278,0.172-0.665,0.031-0.862-0.301c-0.201-0.341-0.139-0.747,0.136-0.919C9.456,79.85,9.842,79.982,10.039,80.314z" fill="#F3F3F4"/>			<path clip-path="url(#SVGIDserver_proxy_4_)" d="M10,80.346c0.186,0.309,0.131,0.685-0.124,0.837     c-0.258,0.16-0.61,0.035-0.796-0.281c-0.186-0.31-0.132-0.685,0.128-0.837C9.459,79.904,9.815,80.037,10,80.346z" fill="#F4F4F5"/>			<path clip-path="url(#SVGIDserver_proxy_4_)" d="M9.962,80.365c0.17,0.285,0.12,0.626-0.116,0.774     c-0.231,0.141-0.561,0.023-0.726-0.258c-0.171-0.286-0.121-0.626,0.111-0.774C9.467,79.967,9.795,80.084,9.962,80.365z" fill="#F5F5F6"/>			<path clip-path="url(#SVGIDserver_proxy_4_)" d="M9.927,80.389c0.155,0.258,0.104,0.571-0.108,0.7     c-0.213,0.137-0.506,0.031-0.661-0.23c-0.159-0.259-0.104-0.571,0.104-0.7C9.475,80.021,9.769,80.135,9.927,80.389z" fill="#F6F6F6"/>			<path clip-path="url(#SVGIDserver_proxy_4_)" d="M9.888,80.408c0.14,0.238,0.097,0.521-0.097,0.638     c-0.189,0.117-0.459,0.02-0.599-0.207c-0.136-0.239-0.097-0.521,0.096-0.638C9.479,80.084,9.75,80.182,9.888,80.408z" fill="#F7F7F7"/>			<path clip-path="url(#SVGIDserver_proxy_4_)" d="M9.85,80.439c0.124,0.207,0.085,0.454-0.089,0.556     c-0.166,0.113-0.402,0.027-0.53-0.18C9.112,80.6,9.15,80.354,9.316,80.252C9.49,80.146,9.722,80.232,9.85,80.439z" fill="#F8F8F8"/>			<path clip-path="url(#SVGIDserver_proxy_4_)" d="M9.811,80.459c0.104,0.184,0.073,0.403-0.073,0.493     c-0.15,0.09-0.36,0.016-0.464-0.164c-0.108-0.185-0.074-0.403,0.073-0.493S9.703,80.279,9.811,80.459z" fill="#F9F9F9"/>			<path clip-path="url(#SVGIDserver_proxy_4_)" d="M9.769,80.482c0.093,0.156,0.07,0.349-0.062,0.419     c-0.127,0.078-0.302,0.02-0.395-0.137c-0.093-0.157-0.065-0.349,0.062-0.419C9.501,80.268,9.676,80.334,9.769,80.482z" fill="#FAFAFA"/>			<path clip-path="url(#SVGIDserver_proxy_4_)" d="M9.733,80.506c0.078,0.133,0.054,0.286-0.05,0.353     c-0.112,0.066-0.259,0.012-0.333-0.117c-0.077-0.134-0.054-0.286,0.05-0.353C9.509,80.33,9.657,80.377,9.733,80.506z" fill="#FBFBFB"/>			<path clip-path="url(#SVGIDserver_proxy_4_)" d="M9.695,80.533c0.062,0.102,0.042,0.228-0.042,0.282     c-0.085,0.047-0.202,0.008-0.267-0.094c-0.062-0.11-0.039-0.235,0.042-0.282C9.513,80.385,9.637,80.432,9.695,80.533z" fill="#FCFCFC"/>			<path clip-path="url(#SVGIDserver_proxy_4_)" d="M9.657,80.553c0.046,0.082,0.031,0.177-0.035,0.212     c-0.062,0.035-0.151,0.008-0.197-0.07c-0.047-0.083-0.031-0.169,0.035-0.212C9.521,80.447,9.61,80.475,9.657,80.553z" fill="#FDFDFD"/>			<path clip-path="url(#SVGIDserver_proxy_4_)" d="M9.618,80.576c0.031,0.055,0.023,0.114-0.02,0.146     c-0.043,0.023-0.104,0.004-0.136-0.051c-0.031-0.048-0.019-0.114,0.019-0.138C9.525,80.502,9.587,80.529,9.618,80.576z" fill="#FEFEFE"/>			<path clip-path="url(#SVGIDserver_proxy_4_)" d="M9.58,80.6c0.015,0.031,0.011,0.059-0.012,0.071     c-0.02,0.012-0.051,0-0.066-0.024c-0.011-0.023-0.007-0.059,0.012-0.07C9.536,80.564,9.564,80.576,9.58,80.6z" fill="#FFFFFF"/>		</g>	</g>		<path d="M1.381,61.785c-0.022-1.429,0-0.961,0-2.935c0.65,1.635,17.672,13.745,24.943,10.427v-9.213   c-8.186,2.894-24.049-8.887-24.943-10.315c-0.022-1.422,0-0.953,0-2.935c0.65,1.642,17.672,13.752,24.943,10.435v-9.214   C18.138,50.921,2.274,39.148,1.381,37.72c-0.022-1.422,0-0.961,0-2.935c0.65,1.643,17.672,13.752,24.943,10.435v-9.146   c-5.581,3.268-26.145-8.016-26.323-13.125c0-0.01,0-0.038-0.001-0.066v63.523h0.019c0.464,5.161,20.765,16.25,26.305,13.012V72.093   C18.138,74.986,2.274,63.207,1.381,61.785z M9.246,85.665c-2.152-1.257-3.883-4.29-3.877-6.776c0.006-2.502,1.749-3.504,3.9-2.248   c2.14,1.253,3.873,4.287,3.866,6.779C13.129,85.916,11.386,86.918,9.246,85.665z" fill="url(#SVGIDserver_proxy_5_)"/>	<g>		<g>			<polygon fill="#CCCCCC" points="46.776,62.888 34.458,70.079 34.478,78.481 46.808,71.273    "/>			<polygon fill="#CCCCCC" points="48.055,70.626 59.293,63.976 59.286,55.421 48.073,62.061    "/>			<polygon fill="#CCCCCC" points="40.396,56.924 34.448,60.403 34.46,68.548 40.427,65.061    "/>			<polygon fill="#CCCCCC" points="41.604,64.43 52.866,57.872 52.846,49.731 41.584,56.301    "/>			<polygon fill="#CCCCCC" points="48.343,50.403 59.238,44.034 59.18,36.231 48.294,42.584    "/>			<polygon fill="#CCCCCC" points="54.16,57.271 59.284,54.229 59.229,46.119 54.117,49.158    "/>			<polygon fill="#CCCCCC" points="46.765,51.445 46.733,43.585 34.446,50.759 34.458,58.629    "/>		</g>		<path d="M34.148,50.93" fill="#FFFFFF" stroke="#000000" stroke-width="0.2"/>		<path d="M54.032,67.617c2.083-3.098,2.091-10.555-2.154-13.232c0.041,6.975-1.854,10.091-1.753,16.615    C53.084,69.494,53.973,67.605,54.032,67.617z" fill="#808080"/>		<path d="M39.307,46.413c2.233,0.988,5.189,22.56,10.302,23.059c-0.193,0.099-4.036,5.137-7.617,3.244    C34.621,68.366,41.421,50.56,39.307,46.413z" fill="#808080"/>		<path d="M52.601,68.774c-0.842-7.134-4.497-11.29-5.086-15.962c-4.538,9.139-2.416,16.358-1.52,19.761    C49.942,71.967,52.546,68.756,52.601,68.774z" fill="#808080"/>	</g></g></symbol></defs><g transform='translate(550.6,454.0) rotate(0 38.4 60.0)'><use xlink:href='#com.gliffy.newnetwork.business.Server_Proxy' width='76.8' height='120.0'  fill="#003366"/><g ></g></g><g transform='translate(573.0,428.0)'><line x1='0.0' y1='0.0' x2='-5.0' y2='-349.0' stroke-dasharray='23, 0' stroke='#000000' stroke-width='2' /></g><g transform='translate(498.0,423.0) rotate(0 82.0 16.0)'><g  transform='translate(0.0,21.0)'><text x='82.0' style='text-anchor: middle' y='-2.0'><tspan xml:space='preserve' font-size='12' font-family='Arial' fill='#000000' >Reverse proxy</tspan></text></g></g><g transform='translate(799.0,427.5) rotate(0 60.0 10.5)'><g  transform='translate(0.0,15.5)'><text x='60.0' style='text-anchor: middle' y='-2.0'><tspan xml:space='preserve' font-size='12' font-family='Arial' fill='#000000' >Web server</tspan></text></g></g><g transform='translate(475.5,127.5) rotate(0 63.5 18.5)'><g  transform='translate(0.0,23.5)'><text x='63.5' style='text-anchor: middle' y='-2.0'><tspan xml:space='preserve' font-size='12' font-family='Arial' fill='#000000' >MISS</tspan></text></g></g><g transform='translate(576.0,180.0)'><line x1='0.0' y1='0.0' x2='262.50003252584906' y2='-2.994296948964058' stroke-dasharray='23, 0' stroke='#000000' stroke-width='1' /><g transform='translate(263.0,-3.0) rotate(539.3464643193222)'><polygon points='2.0,0 8.0,-3.0 8.0,3.0' fill='#000000' stroke='#000000' stroke-width='1.0' /></g></g><g transform='translate(613.5,126.5) rotate(0 96.5 13.5)'><g  transform='translate(0.0,18.5)'><text x='96.5' style='text-anchor: middle' y='-2.0'><tspan xml:space='preserve' font-size='12' font-family='Arial' fill='#000000' >GET /resource/1.html</tspan></text></g></g><g transform='translate(554.0,261.0)'><line x1='0.0' y1='0.0' x2='-273.5' y2='-6.123233995736766E-17' stroke-dasharray='23, 0' stroke='#000000' stroke-width='1' /><g transform='translate(-274.0,0.0) rotate(360.0)'><polygon points='2.0,0 8.0,-3.0 8.0,3.0' fill='#000000' stroke='#000000' stroke-width='1.0' /></g></g><g transform='translate(315.0,230.0) rotate(0 91.0 11.0)'><g  transform='translate(0.0,16.0)'><text x='91.0' style='text-anchor: middle' y='-2.0'><tspan xml:space='preserve' font-size='12' font-family='Arial' fill='#000000' >My content</tspan></text></g></g><g transform='translate(628.0,210.0) rotate(0 97.5 13.5)'><g  transform='translate(0.0,18.5)'><text x='97.5' style='text-anchor: middle' y='-2.0'><tspan xml:space='preserve' font-size='12' font-family='Arial' fill='#000000' >Max-Age: 60</tspan></text></g></g><g transform='translate(268.0,319.0)'><line x1='0.0' y1='0.0' x2='291.5' y2='0.0' stroke-dasharray='23, 0' stroke='#000000' stroke-width='1' /><g transform='translate(292.0,0.0) rotate(180.0)'><polygon points='2.0,0 8.0,-3.0 8.0,3.0' fill='#000000' stroke='#000000' stroke-width='1.0' /></g></g><g transform='translate(264.0,370.0)'><line x1='0.5' y1='-6.123233995736766E-17' x2='305.0' y2='0.0' stroke-dasharray='23, 0' stroke='#000000' stroke-width='1' /><g transform='translate(0.0,0.0) rotate(0.0)'><polygon points='2.0,0 8.0,-3.0 8.0,3.0' fill='#000000' stroke='#000000' stroke-width='1.0' /></g></g><g transform='translate(349.0,292.0) rotate(0 71.0 10.5)'><g  transform='translate(0.0,15.5)'><text x='71.0' style='text-anchor: middle' y='-2.0'><tspan xml:space='preserve' font-size='12' font-family='Arial' fill='#000000' >GET /resource/1.html</tspan></text></g></g><g transform='translate(345.0,347.5) rotate(0 77.0 9.5)'><g  transform='translate(0.0,14.5)'><text x='77.0' style='text-anchor: middle' y='-2.0'><tspan xml:space='preserve' font-size='12' font-family='Arial' fill='#000000' >304 - Not modified</tspan></text></g></g></svg>